<svg id="a"
  xmlns="http://www.w3.org/2000/svg" viewBox="120 100 461 500">
  <defs>
    <style>
      <!-- .b{fill:#f4a33b;}.c{fill:#eb6629;}.d{fill:#ff5749;}.e{fill:#ff859b;}.f{fill:#4bc5df;} -->
    .b,.c,.d,.e,.f {
      fill: #9221ff30;
      fill-opacity: 0.4;
    }
    </style>
  </defs>
  <path class="c" d="M267.77,304.69c-3.28-2.19-4.3-6.55-2.33-9.98,4.67-7.99,6.94-21.61-26.99-47.55-27.87-21.29-43.53-44.28-46.41-68.27-3.08-25.51,9.07-44.98,16.58-54.31,2.6-3.22,7.33-3.72,10.55-1.11,3.21,2.6,3.72,7.31,1.13,10.53-6.04,7.49-15.79,23.05-13.38,43.1,2.41,19.8,16.06,39.36,40.65,58.14,11.92,9.16,48.37,36.97,30.84,67.03-2.08,3.57-6.65,4.78-10.23,2.71l-.41-.29Z"/>
  <circle class="b" cx="145.3" cy="104.92" r="12.68" transform="translate(-22.65 167.48) rotate(-56.26)"/>
  <path class="f" d="M202.86,412.93c-2.29-1.55-4.34-3.45-6.06-5.61-8.37-10.4-6.51-23.59-4.96-34.28,.35-2.32,.63-4.55,.84-6.56,.74-7.84,1.06-26.71-11.72-32.4-3.14-1.31-6.58-1.76-9.96-1.3-7.4,.96-14.53,3.37-21.01,7.07-3.61,2.03-8.19,.74-10.21-2.88s-.74-8.19,2.88-10.21c8.2-4.62,17.22-7.61,26.56-8.78,6.04-.78,12.18,.07,17.77,2.47,15.29,6.74,22.79,24.04,20.61,47.43-.23,2.38-.59,4.88-.94,7.27-1.22,8.56-2.5,17.43,1.78,22.7,8.74,10.82,28.36-2.14,42.35-12.83,3.29-2.52,8-1.88,10.52,1.41s1.88,8-1.41,10.52h0c-9.83,7.5-37.76,28.83-57.04,15.96Z"/>
  <path class="e" d="M346.15,220.55c-2.27-1.52-3.54-4.15-3.31-6.87,.66-7.98,5.92-15.5,9.75-20.99l1.37-2.05c5.9-8.69,12.95-16.55,20.95-23.36,3.08-2.77,7.82-2.51,10.59,.57,2.77,3.08,2.51,7.82-.57,10.59-.1,.09-.21,.18-.32,.27-6.97,5.94-13.11,12.79-18.25,20.36l-1.47,2.2c-2.87,4.1-6.78,9.7-7.1,13.66-.35,4.13-3.98,7.2-8.12,6.85-1.26-.11-2.47-.53-3.53-1.23h0Z"/>
  <path class="b" d="M252.61,360.45c-1.48-.98-2.82-2.16-4-3.49-3.39-3.83-5.09-8.87-4.71-13.97,.16-4.14,3.64-7.37,7.78-7.21s7.37,3.64,7.21,7.78c0,.15-.02,.3-.03,.45-.12,1.11,.23,2.21,.97,3.05,1.37,1.54,4.04,2.5,7.41,2.68,12.07,.65,24.08-2.19,34.58-8.17,3.6-2.05,8.18-.79,10.23,2.81,2.03,3.57,.82,8.11-2.73,10.19-13.02,7.43-27.9,10.96-42.88,10.18-4.91-.16-9.69-1.64-13.83-4.28Z"/>
  <path class="b" d="M146.05,269.89c-11.64-7.78-19.44-18.82-21.73-31.35-3.89-21.33,8.02-37.5,20.18-50.51,2.83-3.03,7.58-3.18,10.61-.35s3.18,7.58,.35,10.61c-11.68,12.48-18.93,23.64-16.38,37.57,2.18,11.94,12.21,22.13,26.84,27.26,3.95,1.24,6.15,5.45,4.91,9.4-1.24,3.95-5.45,6.15-9.4,4.91-.16-.05-.32-.11-.48-.17-5.26-1.82-10.27-4.3-14.91-7.37Z"/>
  <path class="d" d="M277.68,163.31c-3.73-2.47-7.13-5.4-10.12-8.72-7.18-8.05-10.29-17.25-9.01-26.61,1.07-7.7,5.75-14.96,13.55-21.01,15.01-11.68,34.07-14.7,48.99-16.04,4.13-.32,7.74,2.76,8.06,6.89,.32,4.06-2.67,7.64-6.72,8.05-12.88,1.15-29.18,3.67-41.11,12.95-2.67,2.07-7.24,6.28-7.91,11.24-1.04,7.72,5.07,18.95,21.04,25.23,5.43,2.01,11.01,3.59,16.68,4.73,4.05,.9,6.6,4.91,5.7,8.96s-4.91,6.6-8.96,5.7c-6.44-1.3-12.77-3.11-18.92-5.42-3.96-1.57-7.74-3.56-11.27-5.94Z"/>
  <path class="b" d="M427.2,189.99c-10.43-6.97-13.24-21.07-6.27-31.5,6.97-10.43,21.07-13.24,31.5-6.27,10.43,6.97,13.24,21.07,6.27,31.5h0c-6.97,10.42-21.07,13.23-31.5,6.27Zm16.9-25.3c-3.54-2.36-8.33-1.41-10.69,2.13-2.36,3.54-1.41,8.33,2.13,10.69s8.33,1.41,10.69-2.13h0c2.36-3.54,1.4-8.32-2.13-10.69h0Z"/>
  <path class="e" d="M557.16,307.18c-3.73-2.47-7.14-5.4-10.14-8.72-7.18-8.05-10.29-17.25-9.01-26.61,1.07-7.7,5.75-14.97,13.55-21.01,15.01-11.68,34.07-14.7,48.99-16.03,4.07-.76,7.99,1.92,8.75,6s-1.92,7.99-6,8.75c-.45,.08-.91,.13-1.37,.13-12.88,1.15-29.18,3.67-41.11,12.95-2.66,2.07-7.23,6.28-7.91,11.24-1.04,7.72,5.08,18.94,21.05,25.22,5.43,2.02,11.01,3.6,16.69,4.74,4.05,.9,6.59,4.91,5.69,8.96-.9,4.05-4.91,6.59-8.96,5.69-6.44-1.3-12.76-3.11-18.92-5.42-3.97-1.55-7.75-3.52-11.3-5.88Z"/>
  <path class="d" d="M427.54,274.83c-2.27-1.52-3.54-4.15-3.31-6.87,.66-7.98,5.92-15.5,9.74-21l1.37-2.05c5.9-8.69,12.95-16.55,20.95-23.36,3.16-2.68,7.89-2.3,10.57,.86,2.68,3.16,2.3,7.89-.86,10.57-6.97,5.93-13.12,12.78-18.26,20.36l-1.47,2.2c-2.86,4.1-6.77,9.7-7.1,13.66-.35,4.13-3.98,7.2-8.12,6.85-1.26-.11-2.47-.53-3.52-1.22Z"/>
  <circle class="b" cx="437.19" cy="313.9" r="12.68"/>
  <path class="f" d="M526.95,183.02c-2.29-1.55-4.34-3.45-6.06-5.61-8.37-10.4-6.51-23.59-4.96-34.28,.35-2.32,.63-4.55,.84-6.55,.74-7.85,1.08-26.71-11.69-32.33-3.14-1.32-6.58-1.77-9.96-1.3-7.38,.93-14.51,3.3-20.98,6.97-3.7,1.86-8.21,.36-10.07-3.34-1.73-3.45-.56-7.64,2.7-9.7,8.2-4.64,17.23-7.64,26.59-8.82,6.04-.78,12.17,.08,17.77,2.47,15.28,6.73,22.78,24.04,20.58,47.47-.23,2.37-.58,4.87-.93,7.27-1.23,8.57-2.5,17.43,1.78,22.71,8.75,10.81,28.36-2.15,42.35-12.83,3.29-2.52,8-1.89,10.52,1.4,2.52,3.29,1.89,8-1.4,10.52h0c-9.86,7.54-37.79,28.83-57.06,15.95Z"/>
  <path class="f" d="M600.4,375.28c-2.27-1.51-3.54-4.14-3.32-6.86,.66-7.98,5.92-15.5,9.75-21,.48-.72,.93-1.4,1.4-2.01,5.89-8.71,12.93-16.59,20.93-23.42,3.16-2.68,7.89-2.3,10.57,.86,2.68,3.16,2.3,7.89-.86,10.57h0c-6.97,5.93-13.11,12.78-18.25,20.36-.46,.69-.95,1.42-1.51,2.17-2.86,4.1-6.77,9.7-7.1,13.66-.34,4.12-3.95,7.19-8.07,6.86-1.27-.1-2.49-.53-3.55-1.24v.06Z"/>
  <path class="b" d="M553.25,444.44c-3.3-2.2-4.3-6.59-2.3-10.02,4.66-7.99,6.94-21.62-26.99-47.54-27.92-21.33-43.53-44.3-46.42-68.28-3.07-25.52,9.05-44.95,16.61-54.34,2.56-3.26,7.28-3.82,10.53-1.26,3.26,2.56,3.82,7.28,1.26,10.53-.03,.04-.07,.09-.1,.13-6.04,7.49-15.79,23.05-13.37,43.1,2.4,19.81,16.06,39.36,40.63,58.14,11.92,9.16,48.38,36.96,30.84,67.02-2.08,3.57-6.65,4.78-10.23,2.71l-.45-.21Z"/>
  <path class="d" d="M463.77,440.62c-3.96-2.63-7.47-5.89-10.39-9.66-13.24-17.16-10.08-37-5.24-54.14,1.17-3.97,5.34-6.25,9.31-5.08,3.92,1.15,6.19,5.22,5.12,9.16-4.64,16.44-5.96,29.69,2.69,40.89,7.42,9.62,21.02,14.04,36.36,11.9,4.1-.58,7.9,2.28,8.48,6.38,.58,4.1-2.28,7.9-6.38,8.48-15.15,2.14-29.26-.79-39.95-7.94Z"/>
  <path class="f" d="M491.23,573.33c-2.29-1.55-4.34-3.45-6.06-5.61-8.37-10.4-6.48-23.63-4.96-34.28,.35-2.33,.63-4.55,.84-6.56,.74-7.84,1.08-26.7-11.69-32.33-3.14-1.31-6.58-1.76-9.96-1.3-7.39,.93-14.52,3.3-21,6.97-3.56,2.11-8.16,.93-10.28-2.63-2.11-3.56-.93-8.16,2.63-10.28,.1-.06,.21-.12,.32-.18,8.2-4.62,17.22-7.61,26.56-8.78,6.04-.78,12.18,.07,17.77,2.47,15.29,6.74,22.79,24.04,20.61,47.43-.23,2.38-.58,4.87-.93,7.28-1.23,8.56-2.51,17.42,1.77,22.7,8.74,10.82,28.36-2.14,42.35-12.83,3.29-2.52,8-1.88,10.52,1.41,2.52,3.29,1.88,8-1.41,10.52h0c-9.86,7.54-37.79,28.87-57.08,15.99Z"/>
  <path class="c" d="M328.82,467.62c-12.7-8.48-16.12-25.65-7.64-38.35,8.48-12.7,25.65-16.12,38.35-7.64s16.12,25.65,7.64,38.35h0c-8.49,12.68-25.65,16.1-38.35,7.64Zm22.38-33.51c-5.81-3.88-13.67-2.32-17.55,3.49s-2.32,13.67,3.49,17.55,13.67,2.32,17.55-3.49h0c3.87-5.81,2.31-13.66-3.49-17.55h0Z"/>
  <path class="d" d="M376.03,542.67c-10.43-6.97-13.24-21.07-6.27-31.5,6.97-10.43,21.07-13.24,31.5-6.27,10.43,6.97,13.24,21.07,6.27,31.5h0c-6.98,10.42-21.06,13.22-31.5,6.27Zm16.9-25.3c-3.54-2.36-8.33-1.41-10.69,2.13-2.36,3.54-1.41,8.33,2.13,10.69,3.54,2.36,8.33,1.41,10.69-2.13h0c2.36-3.54,1.41-8.33-2.13-10.69h0Z"/>
  <path class="f" d="M302.28,554.32c-2.27-1.52-3.54-4.15-3.31-6.87,.66-7.98,5.91-15.5,9.75-20.99l1.37-2.05c5.9-8.69,12.95-16.55,20.95-23.36,3.16-2.69,7.91-2.31,10.6,.85s2.31,7.91-.85,10.6c-6.97,5.93-13.11,12.78-18.25,20.36-.46,.69-.96,1.43-1.51,2.18-2.86,4.1-6.76,9.7-7.1,13.65-.34,4.13-3.96,7.2-8.09,6.86-1.27-.1-2.49-.53-3.54-1.23h0Z"/>
  <path class="b" d="M222.46,513.21c-3.73-2.47-7.14-5.4-10.14-8.72-7.18-8.05-10.29-17.25-9.01-26.61,1.07-7.7,5.75-14.96,13.55-21.01,15.01-11.68,34.07-14.7,48.99-16.04,4.12-.42,7.8,2.59,8.22,6.71s-2.59,7.8-6.71,8.22c-.06,0-.11,.01-.17,.02-12.88,1.15-29.18,3.67-41.11,12.95-2.66,2.07-7.23,6.28-7.91,11.24-1.04,7.72,5.07,18.95,21.04,25.23,5.44,2,11.04,3.58,16.72,4.72,4.05,.9,6.59,4.91,5.69,8.96-.9,4.05-4.91,6.59-8.96,5.69-6.44-1.3-12.77-3.11-18.92-5.42-3.96-1.57-7.75-3.55-11.29-5.93Z"/>
  <path class="d" d="M201.21,617.58c-3.28-2.2-4.3-6.55-2.33-9.98,4.66-7.99,6.94-21.61-26.99-47.54-27.91-21.32-43.52-44.29-46.41-68.27-3.08-25.52,9.07-44.98,16.58-54.31,2.37-3.4,7.04-4.23,10.44-1.86,3.4,2.37,4.23,7.04,1.86,10.44-.19,.27-.4,.53-.63,.78-6.04,7.49-15.83,23.1-13.38,43.1,2.4,19.81,16.06,39.36,40.64,58.14,11.92,9.16,48.38,36.96,30.84,67.02-2.08,3.57-6.65,4.78-10.23,2.71l-.4-.24Z"/>
  <path class="e" d="M65.65,396.43c-2.27-1.51-3.54-4.14-3.31-6.85,.65-7.98,5.91-15.51,9.75-21l1.37-2.05c5.9-8.69,12.94-16.55,20.95-23.35,3.06-2.79,7.81-2.57,10.59,.5,2.79,3.06,2.57,7.81-.5,10.59-.12,.11-.25,.22-.38,.33-6.97,5.94-13.11,12.79-18.25,20.36l-1.47,2.2c-2.87,4.1-6.77,9.69-7.1,13.66-.35,4.13-3.97,7.19-8.1,6.85-1.26-.11-2.48-.53-3.54-1.24h0Z"/>
  <path class="b" d="M83.87,474.06c-9.27-6.19-11.77-18.72-5.59-27.99,6.19-9.27,18.72-11.77,27.99-5.59,9.27,6.19,11.77,18.72,5.59,27.99h0c-6.2,9.26-18.71,11.75-27.98,5.59Zm14.06-21.06c-2.38-1.59-5.59-.96-7.19,1.42s-.96,5.59,1.42,7.19c2.38,1.59,5.59,.96,7.19-1.42h0c1.59-2.38,.95-5.6-1.42-7.19Z"/>
  <path class="c" d="M80.3,295.46c-10.43-6.97-13.24-21.07-6.27-31.5s21.07-13.24,31.5-6.27,13.24,21.07,6.27,31.5h0c-6.98,10.42-21.06,13.22-31.5,6.27Zm16.9-25.3c-3.54-2.36-8.33-1.41-10.69,2.13s-1.41,8.33,2.13,10.69,8.33,1.41,10.69-2.13h0c2.36-3.54,1.41-8.33-2.13-10.69Z"/>
  <path class="b" d="M329.72,375.85c-4.13-2.77-5.22-8.36-2.45-12.49,1.17-1.74,2.9-3.01,4.91-3.61,5.88-1.75,11.61-2.15,17.16-2.54,4.85-.37,9.4-.66,13.37-1.89,5.68-1.76,9.24-3.99,10.56-6.62,1.48-2.96,1.02-7.85-1.36-14.58-9.55-26.82-36.07-56.1-76.74-84.58-4.07-2.85-5.06-8.47-2.21-12.54,2.85-4.07,8.47-5.06,12.54-2.21,44.38,31.08,72.43,62.48,83.37,93.31,4.14,11.69,4.3,21.07,.48,28.68-3.66,7.28-10.64,12.44-21.34,15.74-5.96,1.84-11.79,2.25-17.41,2.66-4.77,.34-9.28,.64-13.25,1.84-2.59,.78-5.4,.35-7.64-1.17Z"/>
</svg>