<svg width="100" height="38.5" xmlns="http://www.w3.org/2000/svg" viewBox="175 90 155 1" style="background: none;"
  preserveAspectRatio="xMidYMid">
  <defs>
    <filter id="editing-extrusion" x="-100%" y="-100%" width="300%" height="300%">
      <!-- <feFlood result="color1" flood-color="#fb8ad4"></feFlood> -->
      <feConvolveMatrix order="8,8" divisor="1"
        kernelMatrix="1 0 0 0 0 0 0 0 0 1 0 0 0 0 0 0 0 0 1 0 0 0 0 0 0 0 0 1 0 0 0 0 0 0 0 0 1 0 0 0 0 0 0 0 0 1 0 0 0 0 0 0 0 0 1 0 0 0 0 0 0 0 0 1"
        in="SourceAlpha" result="extrude"></feConvolveMatrix>
      <feComposite in="color1" in2="extrude" result="comp-extrude" operator="in"></feComposite>
      <feOffset dx="4" dy="4" in="comp-extrude" result="offset-extrude"></feOffset>
      <feMerge>
        <feMergeNode in="offset-extrude"></feMergeNode>
        <feMergeNode in="SourceGraphic"></feMergeNode>
      </feMerge>
    </filter>
  </defs>
  <g filter="url(#editing-extrusion)">
    <g transform="translate(173.10499715805054, 103.99499893188477)">
      <path
        d="M17.66-19.52L17.66-19.52L17.66-19.52Q17.66-19.07 17.28-18.78L17.28-18.78L17.28-18.78Q16.90-18.50 16.38-18.30L16.38-18.30L16.38-18.30Q15.87-18.11 15.36-18.02L15.36-18.02L15.36-18.02Q14.85-17.92 14.53-17.92L14.53-17.92L14.53-17.92Q13.57-17.92 13.25-18.05L13.25-18.05L13.25-18.05Q12.93-18.18 12.74-18.18L12.74-18.18L12.74-18.18Q11.14-18.18 10.18-17.92L10.18-17.92L10.18-17.92Q9.22-17.66 8.67-17.09L8.67-17.09L8.67-17.09Q8.13-16.51 7.97-15.65L7.97-15.65L7.97-15.65Q7.81-14.78 7.81-13.57L7.81-13.57L7.81-13.57Q7.81-11.52 7.97-10.30L7.97-10.30L7.97-10.30Q8.13-9.09 8.29-8.32L8.29-8.32L8.29-8.32Q8.45-7.55 8.61-7.14L8.61-7.14L8.61-7.14Q8.77-6.72 8.77-6.34L8.77-6.34L8.77-6.34Q8.77-5.82 8.22-5.25L8.22-5.25L8.22-5.25Q7.68-4.67 7.23-4.67L7.23-4.67L7.23-4.67Q6.46-4.67 5.86-6.05L5.86-6.05L5.86-6.05Q5.25-7.42 4.83-9.31L4.83-9.31L4.83-9.31Q4.42-11.20 4.16-13.06L4.16-13.06L4.16-13.06Q3.90-14.91 3.90-15.87L3.90-15.87L3.90-15.87Q3.90-16.96 4.10-17.95L4.10-17.95L4.10-17.95Q4.29-18.94 4.61-19.68L4.61-19.68L4.61-19.68Q4.93-20.42 5.31-20.86L5.31-20.86L5.31-20.86Q5.70-21.31 6.08-21.31L6.08-21.31L6.08-21.31Q6.40-21.31 6.59-21.09L6.59-21.09L6.59-21.09Q6.78-20.86 6.91-20.58L6.91-20.58L6.91-20.58Q7.04-20.29 7.20-20.06L7.20-20.06L7.20-20.06Q7.36-19.84 7.62-19.84L7.62-19.84L7.62-19.84Q8.19-19.84 9.47-20.42L9.47-20.42L9.47-20.42Q10.75-20.99 12.61-20.99L12.61-20.99L12.61-20.99Q14.34-20.99 15.20-20.90L15.20-20.90L15.20-20.90Q16.06-20.80 16.90-20.48L16.90-20.48L16.90-20.48Q17.09-20.42 17.38-20.19L17.38-20.19L17.38-20.19Q17.66-19.97 17.66-19.52ZM38.02-12.74L38.02-12.74L38.02-12.74Q38.02-9.86 37.34-7.68L37.34-7.68L37.34-7.68Q36.67-5.50 35.71-4.06L35.71-4.06L35.71-4.06Q34.75-2.62 33.76-1.92L33.76-1.92L33.76-1.92Q32.77-1.22 32.13-1.22L32.13-1.22L32.13-1.22Q31.23-1.22 30.40-2.02L30.40-2.02L30.40-2.02Q29.57-2.82 29.57-3.52L29.57-3.52L29.57-3.52Q29.57-4.54 30.40-4.54L30.40-4.54L30.40-4.54Q30.72-4.54 31.04-4.32L31.04-4.32L31.04-4.32Q31.36-4.10 31.62-3.97L31.62-3.97L31.62-3.97Q32.70-4.86 33.70-6.91L33.70-6.91L33.70-6.91Q34.69-8.96 34.69-12.74L34.69-12.74L34.69-12.74Q34.69-14.27 34.37-15.49L34.37-15.49L34.37-15.49Q34.05-16.70 33.63-17.54L33.63-17.54L33.63-17.54Q33.22-18.37 32.77-18.82L32.77-18.82L32.77-18.82Q32.32-19.26 32.13-19.26L32.13-19.26L32.13-19.26Q31.49-19.26 30.88-17.98L30.88-17.98L30.88-17.98Q30.27-16.70 29.82-15.07L29.82-15.07L29.82-15.07Q29.38-13.44 29.09-11.87L29.09-11.87L29.09-11.87Q28.80-10.30 28.80-9.73L28.80-9.73L28.80-9.73Q28.86-9.34 28.93-9.02L28.93-9.02L28.93-9.02Q28.99-8.70 29.06-8.38L29.06-8.38L29.06-8.38Q29.12-8.06 29.12-7.74L29.12-7.74L29.12-7.74Q29.12-6.53 28.29-5.57L28.29-5.57L28.29-5.57Q27.46-4.61 26.69-4.61L26.69-4.61L26.69-4.61Q26.30-4.61 26.08-5.15L26.08-5.15L26.08-5.15Q25.86-5.70 25.73-6.53L25.73-6.53L25.73-6.53Q25.60-7.36 25.50-8.26L25.50-8.26L25.50-8.26Q25.41-9.15 25.28-9.86L25.28-9.86L25.28-9.86Q24.77-11.01 23.94-13.50L23.94-13.50L23.94-13.50Q23.10-16 22.18-18.85L22.18-18.85L22.18-18.85Q21.25-21.70 20.45-24.38L20.45-24.38L20.45-24.38Q19.65-27.07 19.26-28.67L19.26-28.67L19.26-28.67Q18.37-32.13 17.89-34.72L17.89-34.72L17.89-34.72Q17.41-37.31 17.12-39.26L17.12-39.26L17.12-39.26Q16.83-41.22 16.77-42.62L16.77-42.62L16.77-42.62Q16.70-44.03 16.70-44.99L16.70-44.99L16.70-44.99Q16.70-45.57 17.18-45.89L17.18-45.89L17.18-45.89Q17.66-46.21 18.05-46.21L18.05-46.21L18.05-46.21Q18.62-46.21 18.88-45.98L18.88-45.98L18.88-45.98Q19.14-45.76 19.23-45.06L19.23-45.06L19.23-45.06Q19.33-44.35 19.42-43.01L19.42-43.01L19.42-43.01Q19.52-41.66 19.78-39.42L19.78-39.42L19.78-39.42Q19.90-38.34 20.26-36.42L20.26-36.42L20.26-36.42Q20.61-34.50 21.18-32.13L21.18-32.13L21.18-32.13Q21.76-29.76 22.43-27.17L22.43-27.17L22.43-27.17Q23.10-24.58 23.84-22.21L23.84-22.21L23.84-22.21Q24.58-19.84 25.31-17.86L25.31-17.86L25.31-17.86Q26.05-15.87 26.69-14.72L26.69-14.72L26.69-14.72Q27.26-17.02 28.10-18.88L28.10-18.88L28.10-18.88Q28.80-20.42 29.82-21.73L29.82-21.73L29.82-21.73Q30.85-23.04 32.32-23.04L32.32-23.04L32.32-23.04Q32.90-23.04 33.86-22.53L33.86-22.53L33.86-22.53Q34.82-22.02 35.74-20.80L35.74-20.80L35.74-20.80Q36.67-19.58 37.34-17.60L37.34-17.60L37.34-17.60Q38.02-15.62 38.02-12.74ZM59.20-12.74L59.20-12.74L59.20-12.74Q59.20-9.86 58.53-7.68L58.53-7.68L58.53-7.68Q57.86-5.50 56.90-4.06L56.90-4.06L56.90-4.06Q55.94-2.62 54.94-1.92L54.94-1.92L54.94-1.92Q53.95-1.22 53.31-1.22L53.31-1.22L53.31-1.22Q52.42-1.22 51.58-2.02L51.58-2.02L51.58-2.02Q50.75-2.82 50.75-3.52L50.75-3.52L50.75-3.52Q50.75-4.54 51.58-4.54L51.58-4.54L51.58-4.54Q51.90-4.54 52.22-4.32L52.22-4.32L52.22-4.32Q52.54-4.10 52.80-3.97L52.80-3.97L52.80-3.97Q53.89-4.86 54.88-6.91L54.88-6.91L54.88-6.91Q55.87-8.96 55.87-12.74L55.87-12.74L55.87-12.74Q55.87-14.27 55.55-15.49L55.55-15.49L55.55-15.49Q55.23-16.70 54.82-17.54L54.82-17.54L54.82-17.54Q54.40-18.37 53.95-18.82L53.95-18.82L53.95-18.82Q53.50-19.26 53.31-19.26L53.31-19.26L53.31-19.26Q52.67-19.26 52.06-17.98L52.06-17.98L52.06-17.98Q51.46-16.70 51.01-15.07L51.01-15.07L51.01-15.07Q50.56-13.44 50.27-11.87L50.27-11.87L50.27-11.87Q49.98-10.30 49.98-9.73L49.98-9.73L49.98-9.73Q50.05-9.34 50.11-9.02L50.11-9.02L50.11-9.02Q50.18-8.70 50.24-8.38L50.24-8.38L50.24-8.38Q50.30-8.06 50.30-7.74L50.30-7.74L50.30-7.74Q50.30-6.53 49.47-5.57L49.47-5.57L49.47-5.57Q48.64-4.61 47.87-4.61L47.87-4.61L47.87-4.61Q47.49-4.61 47.26-5.15L47.26-5.15L47.26-5.15Q47.04-5.70 46.91-6.53L46.91-6.53L46.91-6.53Q46.78-7.36 46.69-8.26L46.69-8.26L46.69-8.26Q46.59-9.15 46.46-9.86L46.46-9.86L46.46-9.86Q45.95-11.01 45.12-13.50L45.12-13.50L45.12-13.50Q44.29-16 43.36-18.85L43.36-18.85L43.36-18.85Q42.43-21.70 41.63-24.38L41.63-24.38L41.63-24.38Q40.83-27.07 40.45-28.67L40.45-28.67L40.45-28.67Q39.55-32.13 39.07-34.72L39.07-34.72L39.07-34.72Q38.59-37.31 38.30-39.26L38.30-39.26L38.30-39.26Q38.02-41.22 37.95-42.62L37.95-42.62L37.95-42.62Q37.89-44.03 37.89-44.99L37.89-44.99L37.89-44.99Q37.89-45.57 38.37-45.89L38.37-45.89L38.37-45.89Q38.85-46.21 39.23-46.21L39.23-46.21L39.23-46.21Q39.81-46.21 40.06-45.98L40.06-45.98L40.06-45.98Q40.32-45.76 40.42-45.06L40.42-45.06L40.42-45.06Q40.51-44.35 40.61-43.01L40.61-43.01L40.61-43.01Q40.70-41.66 40.96-39.42L40.96-39.42L40.96-39.42Q41.09-38.34 41.44-36.42L41.44-36.42L41.44-36.42Q41.79-34.50 42.37-32.13L42.37-32.13L42.37-32.13Q42.94-29.76 43.62-27.17L43.62-27.17L43.62-27.17Q44.29-24.58 45.02-22.21L45.02-22.21L45.02-22.21Q45.76-19.84 46.50-17.86L46.50-17.86L46.50-17.86Q47.23-15.87 47.87-14.72L47.87-14.72L47.87-14.72Q48.45-17.02 49.28-18.88L49.28-18.88L49.28-18.88Q49.98-20.42 51.01-21.73L51.01-21.73L51.01-21.73Q52.03-23.04 53.50-23.04L53.50-23.04L53.50-23.04Q54.08-23.04 55.04-22.53L55.04-22.53L55.04-22.53Q56-22.02 56.93-20.80L56.93-20.80L56.93-20.80Q57.86-19.58 58.53-17.60L58.53-17.60L58.53-17.60Q59.20-15.62 59.20-12.74ZM78.53-29.95L78.53-29.95L78.53-29.95Q77.70-25.54 76.99-21.44L76.99-21.44L76.99-21.44Q76.67-19.71 76.35-17.82L76.35-17.82L76.35-17.82Q76.03-15.94 75.74-14.11L75.74-14.11L75.74-14.11Q75.46-12.29 75.23-10.66L75.23-10.66L75.23-10.66Q75.01-9.02 74.88-7.68L74.88-7.68L74.88-7.68Q74.62-5.63 74.50-3.01L74.50-3.01L74.50-3.01Q74.37-0.38 74.24 1.98L74.24 1.98L74.24 1.98Q74.11 4.74 74.11 7.55L74.11 7.55L74.11 7.55Q74.11 8.13 73.98 8.83L73.98 8.83L73.98 8.83Q73.86 9.54 73.86 10.24L73.86 10.24L73.86 10.24Q73.86 10.88 73.57 11.33L73.57 11.33L73.57 11.33Q73.28 11.78 72.70 11.78L72.70 11.78L72.70 11.78Q72.19 11.78 71.90 10.98L71.90 10.98L71.90 10.98Q71.62 10.18 71.42 9.12L71.42 9.12L71.42 9.12Q71.23 8.06 71.17 7.01L71.17 7.01L71.17 7.01Q71.10 5.95 71.10 5.50L71.10 5.50L71.10 5.50Q71.10 4.99 71.10 4.26L71.10 4.26L71.10 4.26Q71.10 3.52 71.20 2.08L71.20 2.08L71.20 2.08Q71.30 0.64 71.49-1.70L71.49-1.70L71.49-1.70Q71.68-4.03 72.06-7.81L72.06-7.81L72.06-7.81Q72.06-7.87 71.20-8.45L71.20-8.45L71.20-8.45Q70.34-9.02 69.09-9.89L69.09-9.89L69.09-9.89Q67.84-10.75 66.53-11.78L66.53-11.78L66.53-11.78Q65.22-12.80 64.32-13.76L64.32-13.76L64.32-13.76Q64.19-13.89 63.94-14.34L63.94-14.34L63.94-14.34Q63.68-14.78 63.68-15.42L63.68-15.42L63.68-15.42Q63.68-15.74 64-16.10L64-16.10L64-16.10Q64.32-16.45 64.70-16.45L64.70-16.45L64.70-16.45Q64.96-16.45 65.22-16.19L65.22-16.19L65.22-16.19Q66.69-14.91 68.61-13.34L68.61-13.34L68.61-13.34Q70.53-11.78 72.38-10.50L72.38-10.50L72.38-10.50Q72.51-11.65 72.93-14.02L72.93-14.02L72.93-14.02Q73.34-16.38 73.79-19.10L73.79-19.10L73.79-19.10Q74.24-21.82 74.66-24.38L74.66-24.38L74.66-24.38Q75.07-26.94 75.26-28.48L75.26-28.48L75.26-28.48Q75.26-28.74 75.39-29.31L75.39-29.31L75.39-29.31Q75.52-29.89 75.78-30.46L75.78-30.46L75.78-30.46Q76.03-31.04 76.35-31.46L76.35-31.46L76.35-31.46Q76.67-31.87 77.06-31.87L77.06-31.87L77.06-31.87Q77.25-31.87 77.89-31.52L77.89-31.52L77.89-31.52Q78.53-31.17 78.53-29.95ZM87.30-4.10L87.30-4.10L87.30-4.10Q87.30-3.71 86.91-3.36L86.91-3.36L86.91-3.36Q86.53-3.01 86.05-2.72L86.05-2.72L86.05-2.72Q85.57-2.43 85.12-2.27L85.12-2.27L85.12-2.27Q84.67-2.11 84.61-2.11L84.61-2.11L84.61-2.11Q84.03-2.11 83.74-2.40L83.74-2.40L83.74-2.40Q83.46-2.69 83.30-3.04L83.30-3.04L83.30-3.04Q83.14-3.39 83.10-3.71L83.10-3.71L83.10-3.71Q83.07-4.03 83.07-4.16L83.07-4.16L83.07-4.16Q83.07-4.42 83.20-4.83L83.20-4.83L83.20-4.83Q83.33-5.25 83.58-5.63L83.58-5.63L83.58-5.63Q83.84-6.02 84.19-6.30L84.19-6.30L84.19-6.30Q84.54-6.59 84.99-6.59L84.99-6.59L84.99-6.59Q85.82-6.59 86.56-5.89L86.56-5.89L86.56-5.89Q87.30-5.18 87.30-4.10ZM110.21-10.30L110.21-10.30L110.21-10.30Q110.21-9.98 109.92-9.70L109.92-9.70L109.92-9.70Q109.63-9.41 109.57-9.09L109.57-9.09L109.57-9.09Q109.57-8.38 109.86-7.74L109.86-7.74L109.86-7.74Q110.14-7.10 110.14-6.21L110.14-6.21L110.14-6.21Q110.14-5.38 109.63-5.38L109.63-5.38L109.63-5.38Q108.99-5.38 108.70-5.22L108.70-5.22L108.70-5.22Q108.42-5.06 107.71-4.93L107.71-4.93L107.71-4.93Q107.33-4.93 106.88-5.63L106.88-5.63L106.88-5.63Q106.62-5.95 106.43-6.40L106.43-6.40L106.43-6.40Q106.43-6.46 106.08-6.14L106.08-6.14L106.08-6.14Q105.73-5.82 104.93-5.41L104.93-5.41L104.93-5.41Q104.13-4.99 102.75-4.64L102.75-4.64L102.75-4.64Q101.38-4.29 99.26-4.29L99.26-4.29L99.26-4.29Q97.47-4.29 96.13-5.09L96.13-5.09L96.13-5.09Q94.78-5.89 93.92-7.17L93.92-7.17L93.92-7.17Q93.06-8.45 92.64-10.08L92.64-10.08L92.64-10.08Q92.22-11.71 92.22-13.38L92.22-13.38L92.22-13.38Q92.22-14.91 92.58-16.29L92.58-16.29L92.58-16.29Q92.93-17.66 93.57-18.72L93.57-18.72L93.57-18.72Q94.21-19.78 95.17-20.42L95.17-20.42L95.17-20.42Q96.13-21.06 97.41-21.06L97.41-21.06L97.41-21.06Q98.62-21.06 99.84-20.29L99.84-20.29L99.84-20.29Q101.06-19.52 102.02-18.62L102.02-18.62L102.02-18.62Q102.98-17.73 103.58-16.99L103.58-16.99L103.58-16.99Q104.19-16.26 104.19-16.26L104.19-16.26L104.19-16.26Q103.30-21.25 102.59-25.28L102.59-25.28L102.59-25.28Q102.27-27.01 101.98-28.70L101.98-28.70L101.98-28.70Q101.70-30.40 101.44-31.74L101.44-31.74L101.44-31.74Q101.18-33.09 101.02-34.02L101.02-34.02L101.02-34.02Q100.86-34.94 100.86-35.14L100.86-35.14L100.86-35.14Q100.80-35.52 100.74-36.51L100.74-36.51L100.74-36.51Q100.67-37.50 100.61-38.59L100.61-38.59L100.61-38.59Q100.54-39.68 100.48-40.58L100.48-40.58L100.48-40.58Q100.42-41.47 100.35-41.73L100.35-41.73L100.35-41.73Q100.16-42.37 99.87-43.33L99.87-43.33L99.87-43.33Q99.58-44.29 99.58-44.42L99.58-44.42L99.58-44.42Q99.58-44.74 99.90-45.22L99.90-45.22L99.90-45.22Q100.22-45.70 100.74-45.70L100.74-45.70L100.74-45.70Q101.12-45.70 101.44-45.63L101.44-45.63L101.44-45.63Q101.76-45.57 102.02-45.25L102.02-45.25L102.02-45.25Q102.27-44.93 102.50-44.26L102.50-44.26L102.50-44.26Q102.72-43.58 102.91-42.37L102.91-42.37L102.91-42.37Q102.98-41.73 103.30-39.94L103.30-39.94L103.30-39.94Q103.62-38.14 103.94-36.03L103.94-36.03L103.94-36.03Q104.26-33.92 104.58-32L104.58-32L104.58-32Q104.90-30.08 105.02-29.18L105.02-29.18L105.02-29.18Q105.34-26.75 105.89-23.90L105.89-23.90L105.89-23.90Q106.43-21.06 107.01-18.43L107.01-18.43L107.01-18.43Q107.58-15.81 108.16-13.79L108.16-13.79L108.16-13.79Q108.74-11.78 109.18-11.07L109.18-11.07L109.18-11.07Q109.31-10.82 109.70-10.72L109.70-10.72L109.70-10.72Q110.08-10.62 110.21-10.30ZM105.47-9.02L105.47-9.02L105.47-9.02Q105.41-9.22 104.67-10.66L104.67-10.66L104.67-10.66Q103.94-12.10 102.82-13.79L102.82-13.79L102.82-13.79Q101.70-15.49 100.32-16.83L100.32-16.83L100.32-16.83Q98.94-18.18 97.66-18.18L97.66-18.18L97.66-18.18Q96.58-18.18 95.90-16.51L95.90-16.51L95.90-16.51Q95.23-14.85 95.23-12.67L95.23-12.67L95.23-12.67Q95.23-10.24 96.67-8.77L96.67-8.77L96.67-8.77Q98.11-7.30 99.90-7.30L99.90-7.30L99.90-7.30Q101.44-7.30 103.10-7.81L103.10-7.81L103.10-7.81Q104.77-8.32 105.47-9.02ZM132.93-6.72L132.93-6.72L132.93-6.72Q132.99-6.59 132.99-6.34L132.99-6.34L132.99-6.34Q132.99-5.95 132.42-5.18L132.42-5.18L132.42-5.18Q132.22-4.93 131.58-4.35L131.58-4.35L131.58-4.35Q130.94-3.78 129.86-3.20L129.86-3.20L129.86-3.20Q128.77-2.62 127.20-2.18L127.20-2.18L127.20-2.18Q125.63-1.73 123.52-1.73L123.52-1.73L123.52-1.73Q122.05-1.73 120.64-2.40L120.64-2.40L120.64-2.40Q119.23-3.07 118.14-4.38L118.14-4.38L118.14-4.38Q117.06-5.70 116.35-7.65L116.35-7.65L116.35-7.65Q115.65-9.60 115.65-12.22L115.65-12.22L115.65-12.22Q115.65-14.72 116.29-16.90L116.29-16.90L116.29-16.90Q116.93-19.07 117.92-20.74L117.92-20.74L117.92-20.74Q118.91-22.40 120.13-23.36L120.13-23.36L120.13-23.36Q121.34-24.32 122.50-24.32L122.50-24.32L122.50-24.32Q123.52-24.32 124.58-23.90L124.58-23.90L124.58-23.90Q125.63-23.49 126.50-22.85L126.50-22.85L126.50-22.85Q127.36-22.21 127.87-21.41L127.87-21.41L127.87-21.41Q128.38-20.61 128.38-19.78L128.38-19.78L128.38-19.78Q128.38-18.82 127.52-17.79L127.52-17.79L127.52-17.79Q126.66-16.77 125.44-15.90L125.44-15.90L125.44-15.90Q124.22-15.04 123.01-14.50L123.01-14.50L123.01-14.50Q121.79-13.95 121.09-13.95L121.09-13.95L121.09-13.95Q120.70-13.95 120.42-14.30L120.42-14.30L120.42-14.30Q120.13-14.66 120.13-15.17L120.13-15.17L120.13-15.17Q120.13-16.06 120.93-16.58L120.93-16.58L120.93-16.58Q121.73-17.09 122.69-17.50L122.69-17.50L122.69-17.50Q123.65-17.92 124.45-18.50L124.45-18.50L124.45-18.50Q125.25-19.07 125.25-20.10L125.25-20.10L125.25-20.10Q125.25-20.22 124.93-20.74L124.93-20.74L124.93-20.74Q124.61-21.25 123.20-21.25L123.20-21.25L123.20-21.25Q122.56-21.25 121.73-20.51L121.73-20.51L121.73-20.51Q120.90-19.78 120.13-18.53L120.13-18.53L120.13-18.53Q119.36-17.28 118.85-15.58L118.85-15.58L118.85-15.58Q118.34-13.89 118.34-11.90L118.34-11.90L118.34-11.90Q118.34-10.24 118.94-8.90L118.94-8.90L118.94-8.90Q119.55-7.55 120.51-6.62L120.51-6.62L120.51-6.62Q121.47-5.70 122.75-5.18L122.75-5.18L122.75-5.18Q124.03-4.67 125.38-4.67L125.38-4.67L125.38-4.67Q126.34-4.67 127.46-5.09L127.46-5.09L127.46-5.09Q128.58-5.50 129.57-5.98L129.57-5.98L129.57-5.98Q130.56-6.46 131.30-6.88L131.30-6.88L131.30-6.88Q132.03-7.30 132.22-7.30L132.22-7.30L132.22-7.30Q132.42-7.30 132.64-7.10L132.64-7.10L132.64-7.10Q132.86-6.91 132.93-6.72ZM149.89-22.53L149.89-22.53L149.89-22.53Q149.89-22.34 149.57-20.86L149.57-20.86L149.57-20.86Q149.25-19.39 148.93-17.54L148.93-17.54L148.93-17.54Q148.74-16.45 148.32-14.30L148.32-14.30L148.32-14.30Q147.90-12.16 147.90-7.81L147.90-7.81L147.90-7.81Q147.90-7.68 147.87-7.14L147.87-7.14L147.87-7.14Q147.84-6.59 147.68-6.02L147.68-6.02L147.68-6.02Q147.52-5.44 147.20-4.96L147.20-4.96L147.20-4.96Q146.88-4.48 146.24-4.48L146.24-4.48L146.24-4.48Q145.66-4.48 144.96-4.99L144.96-4.99L144.96-4.99Q143.36-6.14 142.02-7.68L142.02-7.68L142.02-7.68Q140.67-9.22 139.71-11.04L139.71-11.04L139.71-11.04Q138.75-12.86 138.24-14.85L138.24-14.85L138.24-14.85Q137.73-16.83 137.73-18.88L137.73-18.88L137.73-18.88Q137.73-19.14 138.08-19.36L138.08-19.36L138.08-19.36Q138.43-19.58 138.62-19.58L138.62-19.58L138.62-19.58Q139.58-19.58 140.13-18.50L140.13-18.50L140.13-18.50Q140.67-17.41 141.22-15.87L141.22-15.87L141.22-15.87Q141.76-14.34 142.50-12.64L142.50-12.64L142.50-12.64Q143.23-10.94 144.70-9.73L144.70-9.73L144.70-9.73Q144.90-9.98 145.02-10.69L145.02-10.69L145.02-10.69Q145.15-11.39 145.22-11.90L145.22-11.90L145.22-11.90Q145.28-12.35 145.41-13.66L145.41-13.66L145.41-13.66Q145.54-14.98 145.70-16.45L145.70-16.45L145.70-16.45Q145.86-17.92 145.95-19.26L145.95-19.26L145.95-19.26Q146.05-20.61 146.05-21.12L146.05-21.12L146.05-21.12Q146.05-21.50 146.11-22.02L146.11-22.02L146.11-22.02Q146.18-22.53 146.40-22.98L146.40-22.98L146.40-22.98Q146.62-23.42 147.01-23.74L147.01-23.74L147.01-23.74Q147.39-24.06 148.03-24.06L148.03-24.06L148.03-24.06Q148.35-24.06 149.12-23.65L149.12-23.65L149.12-23.65Q149.89-23.23 149.89-22.53Z"
        fill="#ffffff"></path>
    </g>
  </g>
  <style>
    text {
      font-size: 64px;
      font-family: Arial Black;
      dominant-baseline: central;
      text-anchor: middle;
    }
  </style>
</svg>