<?xml version="1.0" standalone="no"?>
<svg id="svg" version="1.1" viewBox="280 -210 1289 1589" width="128" height="128" xmlns="http://www.w3.org/2000/svg">
  <g transform="rotate(-20)">
    <path stroke="#fff" stroke-width="140" fill="#fff"
      d="M172.500 146.862 C 152.934 154.955,144.176 186.533,154.049 213.393 C 160.116 229.902,165.585 279.432,161.773 283.350 C 156.308 288.967,158.844 302.442,166.500 308.464 C 172.298 313.025,174.000 317.125,174.000 326.533 C 174.000 335.001,175.596 339.597,179.250 341.645 C 182.542 343.490,184.556 348.300,184.651 354.544 C 185.280 396.080,185.542 397.200,199.500 418.013 L 213.000 438.142 213.000 480.624 C 213.000 529.658,217.742 552.001,231.300 566.845 C 236.085 572.084,240.000 578.573,240.000 581.266 C 240.000 588.958,254.840 636.372,260.887 648.000 C 263.890 653.775,267.264 662.830,268.384 668.121 C 269.504 673.413,272.891 682.863,275.910 689.121 C 286.285 710.622,290.895 730.586,295.510 774.000 C 298.054 797.925,300.874 819.873,301.777 822.772 C 303.954 829.765,329.369 849.000,336.431 849.000 C 344.158 849.000,343.398 854.579,333.766 868.554 C 327.267 877.984,325.427 884.291,325.031 898.500 C 324.554 915.648,324.149 916.546,316.462 917.479 C 312.024 918.017,304.142 921.049,298.947 924.217 C 293.751 927.385,284.934 929.983,279.354 929.989 C 267.749 930.002,249.980 939.842,247.917 947.399 C 240.623 974.109,246.117 999.670,262.387 1014.721 L 271.274 1022.942 259.747 1034.747 C 248.565 1046.199,248.263 1047.067,249.649 1063.780 C 250.861 1078.401,252.509 1082.287,260.539 1089.462 C 265.742 1094.111,270.000 1100.663,270.000 1104.021 C 270.000 1107.379,272.658 1119.886,275.906 1131.813 C 289.385 1181.310,297.293 1220.172,300.335 1251.874 C 307.592 1327.496,309.867 1341.000,315.350 1341.000 C 316.807 1341.000,318.042 1343.363,318.093 1346.250 C 318.144 1349.138,324.410 1356.192,332.017 1361.926 C 344.035 1370.985,348.536 1372.504,366.351 1373.510 L 386.854 1374.669 376.793 1387.084 C 371.259 1393.913,365.833 1402.438,364.734 1406.030 C 362.205 1414.292,369.858 1432.931,380.220 1443.750 C 386.952 1450.778,390.549 1452.000,404.500 1452.000 C 419.545 1452.000,422.031 1453.037,435.047 1464.750 C 442.841 1471.763,452.768 1480.435,457.108 1484.023 C 462.966 1488.865,465.000 1493.335,465.000 1501.367 C 465.000 1508.218,466.651 1512.822,469.500 1513.915 C 471.975 1514.865,474.000 1517.389,474.000 1519.525 C 474.000 1524.819,492.323 1535.231,506.164 1537.801 C 512.399 1538.958,521.550 1542.920,526.500 1546.604 C 531.450 1550.288,544.950 1555.619,556.500 1558.451 C 568.050 1561.283,578.850 1564.658,580.500 1565.951 C 582.150 1567.244,595.170 1571.834,609.434 1576.151 C 635.900 1584.161,669.953 1586.739,673.500 1581.000 C 674.520 1579.350,679.999 1578.000,685.677 1578.000 C 692.853 1578.000,696.000 1576.628,696.000 1573.500 C 696.000 1568.096,703.526 1567.787,721.977 1572.433 C 730.052 1574.466,736.404 1574.752,737.555 1573.133 C 740.097 1569.562,762.375 1563.874,783.069 1561.512 C 792.106 1560.481,802.259 1559.088,805.631 1558.417 C 814.143 1556.722,835.387 1536.642,842.042 1524.000 C 845.082 1518.225,853.291 1507.708,860.285 1500.629 C 873.220 1487.535,875.069 1482.565,870.359 1473.553 C 865.801 1464.832,870.018 1448.863,877.817 1445.310 C 881.704 1443.538,885.634 1439.729,886.550 1436.843 C 887.466 1433.957,891.542 1430.762,895.608 1429.741 C 901.504 1428.261,903.000 1425.976,903.000 1418.449 C 903.000 1413.260,907.725 1399.059,913.500 1386.892 C 919.684 1373.864,924.000 1360.160,924.000 1353.553 C 924.000 1341.521,917.193 1329.000,910.651 1329.000 C 908.446 1329.000,905.800 1326.805,904.771 1324.123 C 903.278 1320.235,899.869 1319.538,887.950 1320.683 C 870.761 1322.334,869.757 1320.318,880.654 1306.031 C 897.118 1284.446,905.564 1234.876,896.516 1212.945 C 894.599 1208.300,893.368 1203.150,893.781 1201.500 C 896.713 1189.766,900.487 1161.925,901.711 1143.000 C 902.511 1130.625,905.046 1115.100,907.343 1108.500 C 909.640 1101.900,913.691 1088.738,916.344 1079.250 C 918.997 1069.763,922.480 1062.000,924.084 1062.000 C 925.688 1062.000,927.001 1058.963,927.002 1055.250 C 927.003 1048.583,936.226 1021.776,941.986 1011.696 C 956.716 985.918,963.612 945.688,955.868 930.713 C 949.117 917.657,949.614 902.184,957.000 895.500 C 960.300 892.514,963.000 888.254,963.000 886.035 C 963.000 883.816,964.865 882.000,967.144 882.000 C 969.423 882.000,975.044 877.076,979.634 871.057 C 986.873 861.566,987.558 858.994,984.795 851.672 C 982.318 845.110,982.543 842.454,985.804 839.748 C 988.634 837.399,990.000 829.728,990.000 816.184 C 990.000 805.139,991.450 788.092,993.222 778.301 C 998.052 751.613,1016.749 693.668,1026.448 675.328 C 1032.741 663.428,1035.000 654.955,1035.000 643.255 C 1035.000 634.509,1036.369 626.508,1038.043 625.474 C 1042.850 622.503,1053.000 600.911,1053.000 593.657 C 1053.000 590.036,1048.647 574.394,1043.328 558.896 L 1033.655 530.717 1040.302 512.109 C 1043.958 501.874,1048.377 486.750,1050.121 478.500 C 1051.866 470.250,1054.721 458.100,1056.466 451.500 C 1061.577 432.166,1062.066 367.146,1057.261 345.667 C 1054.260 332.252,1053.774 321.464,1055.573 308.167 C 1060.331 272.995,1051.659 235.441,1037.950 231.856 C 1034.906 231.060,1031.689 228.517,1030.802 226.204 C 1028.930 221.326,1014.000 220.435,1014.000 225.201 C 1014.000 226.962,1009.390 232.751,1003.755 238.065 C 991.008 250.087,987.755 264.945,992.667 288.722 C 996.602 307.776,994.953 322.729,987.085 339.327 C 980.797 352.593,979.517 380.973,984.576 394.963 C 987.704 403.615,987.615 405.766,984.037 407.977 C 980.646 410.073,979.953 417.407,980.719 443.063 C 983.277 528.680,984.750 519.094,962.355 562.500 C 954.944 576.862,952.104 597.145,956.423 604.863 C 958.982 609.436,957.892 611.823,950.381 618.093 L 941.217 625.744 940.426 667.622 C 939.813 700.040,938.194 714.244,933.256 730.500 C 929.747 742.050,925.423 756.900,923.646 763.500 C 921.869 770.100,919.239 777.777,917.801 780.560 C 916.363 783.344,912.485 793.306,909.184 802.699 C 900.625 827.050,895.660 833.417,883.441 835.709 C 869.409 838.341,865.849 845.676,868.260 866.986 C 869.750 880.157,869.182 884.944,865.795 887.756 C 854.004 897.541,842.980 930.247,849.020 937.525 C 851.788 940.860,851.437 944.773,847.428 955.272 C 844.141 963.879,843.049 971.764,844.404 977.120 C 854.231 1015.970,849.134 1095.898,834.167 1137.648 C 822.272 1170.827,811.842 1189.609,797.875 1203.000 C 790.130 1210.425,783.043 1218.525,782.126 1221.000 C 780.642 1225.000,780.090 1225.000,777.157 1221.000 C 775.343 1218.525,774.384 1213.430,775.027 1209.678 C 775.669 1205.927,775.095 1202.177,773.750 1201.345 C 770.742 1199.486,772.267 1173.751,778.155 1127.028 C 780.613 1107.519,782.682 1077.486,782.753 1060.289 C 782.954 1011.513,787.164 991.477,801.088 973.035 C 821.314 946.246,826.033 936.036,821.824 928.171 C 818.941 922.785,818.996 918.655,822.083 908.430 C 824.231 901.319,826.183 888.670,826.422 880.322 C 826.743 869.093,828.566 863.434,833.428 858.572 C 842.296 849.704,841.923 833.756,832.366 813.225 C 826.331 800.261,825.186 794.311,826.736 783.975 C 827.806 776.839,830.078 771.000,831.785 771.000 C 836.159 771.000,832.622 721.793,827.094 705.749 C 824.022 696.831,823.723 692.993,826.101 692.977 C 831.258 692.941,837.187 678.323,839.093 660.946 C 840.700 646.294,840.239 644.880,831.149 636.578 C 822.020 628.240,819.773 627.686,789.500 626.317 C 759.419 624.957,752.935 625.880,735.529 633.999 C 727.630 637.683,720.000 653.542,720.000 666.274 C 720.000 675.577,709.047 699.000,704.697 699.000 C 703.214 699.000,701.970 701.363,701.934 704.250 C 701.838 711.877,692.070 732.150,683.716 742.058 C 671.548 756.490,655.921 771.000,652.546 771.000 C 648.456 771.000,650.541 746.253,654.861 743.516 C 656.968 742.181,656.231 734.817,652.609 721.016 C 649.647 709.732,646.822 687.000,646.330 670.500 C 645.839 654.000,645.338 638.816,645.218 636.759 C 644.893 631.177,624.181 609.247,614.512 604.248 C 601.667 597.605,537.042 599.515,529.815 606.750 C 526.931 609.638,523.415 612.000,522.001 612.000 C 520.588 612.000,516.501 619.763,512.919 629.250 C 506.834 645.370,506.626 648.465,509.742 676.500 C 511.576 693.000,513.381 724.725,513.754 747.000 C 514.418 786.744,514.278 787.723,506.216 799.446 C 501.697 806.017,498.000 814.307,498.000 817.869 C 498.000 825.945,506.210 844.378,515.730 857.675 C 522.094 866.565,522.476 868.536,518.924 874.137 C 493.664 913.960,488.581 939.985,502.500 958.233 C 506.625 963.641,510.000 970.301,510.000 973.033 C 510.000 975.765,511.083 978.000,512.407 978.000 C 516.775 978.000,524.745 1006.223,524.691 1021.500 C 524.631 1038.445,525.669 1048.788,529.293 1067.362 C 532.314 1082.847,547.816 1097.232,564.347 1099.892 C 574.602 1101.543,575.376 1102.481,578.515 1117.069 C 584.121 1143.126,585.172 1184.861,581.000 1215.825 C 576.345 1250.386,573.323 1255.167,562.540 1245.037 C 558.393 1241.142,555.000 1236.899,555.000 1235.610 C 555.000 1234.321,551.697 1228.399,547.660 1222.450 C 543.622 1216.500,538.046 1203.953,535.268 1194.566 C 525.763 1162.446,518.648 1135.499,516.110 1122.000 C 513.537 1108.322,507.494 1089.537,497.772 1065.000 C 489.847 1044.995,484.247 973.815,489.030 953.876 C 492.952 937.525,491.028 906.587,485.408 895.647 C 483.671 892.266,479.484 886.463,476.102 882.750 C 472.721 879.038,471.539 876.000,473.477 876.000 C 480.854 876.000,476.598 860.115,465.226 845.201 C 456.244 833.422,454.110 828.532,456.226 824.578 C 461.026 815.609,459.253 794.889,452.448 780.425 C 448.674 772.403,438.182 759.524,427.698 750.045 C 403.227 727.918,388.498 702.793,380.694 669.867 C 377.257 655.365,372.031 636.075,369.080 627.000 C 349.615 567.135,347.548 558.560,349.461 545.609 C 351.051 534.844,349.983 529.853,343.488 517.696 C 336.787 505.152,336.128 501.866,339.173 496.177 C 344.252 486.686,340.929 476.962,326.851 460.120 C 306.202 435.417,294.651 413.018,289.565 387.822 C 283.796 359.237,279.965 349.014,270.858 337.908 C 266.433 332.512,264.480 327.212,265.608 323.658 C 268.368 314.963,264.301 306.000,257.596 306.000 C 252.752 306.000,252.000 304.700,253.694 299.250 C 254.849 295.538,256.965 292.050,258.397 291.500 C 264.571 289.128,260.037 278.376,247.500 265.659 C 236.637 254.640,234.000 249.897,234.000 241.377 C 234.000 235.554,232.128 227.799,229.841 224.144 C 227.553 220.490,223.989 208.199,221.922 196.831 C 219.745 184.862,215.814 173.814,212.581 170.581 C 209.512 167.512,207.000 162.550,207.000 159.556 C 207.000 156.277,202.782 152.100,196.398 149.056 C 184.726 143.489,181.393 143.184,172.500 146.862 M202.956 178.500 C 208.156 188.400,212.551 201.225,212.722 207.000 C 213.136 220.964,218.569 240.000,222.141 240.000 C 223.713 240.000,225.000 248.246,225.000 258.325 C 225.000 276.554,225.041 276.640,232.787 274.696 C 237.070 273.621,242.330 274.199,244.477 275.981 C 250.364 280.866,246.447 291.000,238.673 291.000 C 235.028 291.000,228.938 294.308,225.140 298.351 C 218.750 305.153,216.748 305.568,198.367 303.907 C 176.786 301.957,162.814 295.802,171.982 292.284 C 175.802 290.818,176.965 286.674,176.855 274.929 C 176.702 258.608,167.798 211.798,164.154 208.154 C 162.969 206.969,162.000 198.550,162.000 189.443 C 162.000 168.903,170.037 158.201,184.406 159.609 C 192.146 160.367,194.908 163.181,202.956 178.500 M1030.740 238.312 C 1033.111 240.683,1037.862 249.120,1041.296 257.062 C 1046.682 269.514,1047.303 275.335,1045.818 299.384 C 1044.578 319.461,1045.452 333.438,1048.938 349.304 C 1052.121 363.789,1053.055 376.178,1051.663 385.460 C 1049.748 398.232,1048.922 399.383,1043.023 397.510 C 1027.754 392.662,1020.357 392.628,1013.121 397.369 C 1005.900 402.100,1005.352 402.017,1000.782 395.493 C 995.313 387.683,994.347 361.740,999.064 349.333 C 1000.748 344.901,1003.370 332.496,1004.890 321.765 C 1007.097 306.179,1006.707 299.890,1002.949 290.498 C 996.688 274.850,999.238 258.141,1009.933 244.737 C 1019.214 233.106,1024.043 231.614,1030.740 238.312 M247.897 311.250 C 256.662 321.441,256.663 321.392,247.500 330.000 C 236.378 340.448,237.561 346.125,250.359 343.724 C 264.022 341.161,267.348 346.619,275.823 385.500 C 279.419 402.000,283.292 417.055,284.431 418.956 C 287.775 424.542,314.447 462.832,320.710 471.037 C 328.666 481.462,324.350 486.457,296.114 499.502 C 273.485 509.958,250.341 513.095,232.048 508.187 C 224.858 506.258,221.443 495.249,225.684 487.670 C 227.362 484.672,227.203 472.760,225.275 456.992 C 222.848 437.151,220.096 428.023,213.326 417.357 C 200.554 397.237,194.398 373.881,196.776 354.566 C 198.482 340.706,197.905 337.857,192.340 332.673 C 187.132 327.821,186.550 325.578,189.210 320.608 C 192.055 315.292,194.331 314.758,206.812 316.474 C 219.426 318.209,222.189 317.530,229.824 310.818 C 234.596 306.622,239.018 303.147,239.651 303.095 C 240.284 303.043,243.995 306.713,247.897 311.250 M1040.683 413.704 C 1045.807 418.491,1050.000 424.500,1050.000 427.057 C 1050.000 431.509,1044.938 451.079,1036.305 480.000 C 1022.833 525.132,1022.209 529.002,1025.995 543.945 C 1028.008 551.890,1031.655 562.400,1034.100 567.301 C 1038.842 576.807,1040.233 597.340,1036.853 607.927 C 1034.463 615.411,1019.963 622.200,1006.369 622.200 C 992.243 622.200,973.294 606.138,971.041 592.254 C 968.809 578.497,971.631 563.953,976.927 561.921 C 979.167 561.061,981.000 558.073,981.000 555.279 C 981.000 552.486,982.201 548.918,983.668 547.350 C 985.135 545.783,988.517 536.844,991.183 527.487 C 995.449 512.514,995.596 505.235,992.412 466.759 C 988.974 425.202,989.072 422.840,994.411 418.936 C 997.499 416.678,1002.235 415.408,1004.935 416.114 C 1007.635 416.820,1013.142 414.653,1017.172 411.299 C 1026.934 403.174,1029.715 403.459,1040.683 413.704 M339.000 537.386 C 339.000 546.911,334.680 548.214,325.677 541.405 C 318.747 536.164,312.000 535.661,312.000 540.386 C 312.000 542.249,316.769 549.052,322.599 555.504 C 328.428 561.956,333.996 571.232,334.974 576.118 C 335.951 581.003,337.819 585.000,339.125 585.000 C 342.478 585.000,353.765 622.768,358.414 649.540 C 360.567 661.934,363.728 673.762,365.439 675.824 C 367.150 677.886,371.521 687.656,375.153 697.536 C 378.784 707.416,384.285 718.287,387.378 721.693 C 390.470 725.100,393.000 729.542,393.000 731.564 C 393.000 735.921,436.705 780.000,441.025 780.000 C 442.661 780.000,444.000 782.620,444.000 785.823 C 444.000 789.026,445.350 792.480,447.000 793.500 C 450.923 795.925,450.843 810.867,446.860 819.609 C 443.913 826.076,441.925 826.518,414.558 826.799 C 389.855 827.053,382.950 828.269,369.400 834.754 C 352.843 842.678,347.954 842.571,329.267 833.881 C 316.956 828.156,309.000 812.455,309.000 793.888 C 309.000 759.836,300.497 711.812,290.792 691.054 C 281.807 671.837,276.087 656.220,259.361 605.232 C 252.945 585.676,252.225 580.173,254.847 570.732 C 260.240 551.313,257.082 546.471,245.725 556.749 C 240.894 561.121,240.165 560.943,236.540 554.499 C 233.061 548.316,225.171 526.014,225.043 522.000 C 225.017 521.175,237.484 520.899,252.748 521.386 C 278.406 522.205,281.858 521.600,298.500 513.366 L 316.500 504.461 327.750 516.616 C 335.316 524.791,339.000 531.593,339.000 537.386 M589.500 613.891 C 614.428 615.558,623.786 621.139,629.568 637.787 C 633.793 649.948,636.271 675.050,633.236 674.933 C 632.281 674.897,628.125 672.227,624.000 669.000 C 608.802 657.112,603.153 664.517,617.337 677.732 C 625.544 685.379,639.333 705.192,642.578 714.000 C 643.490 716.475,643.138 731.505,641.797 747.400 C 639.947 769.332,640.392 780.183,643.644 792.400 C 649.175 813.183,649.114 825.075,643.433 833.186 L 638.866 839.706 624.942 830.309 C 608.484 819.202,585.255 815.975,566.443 822.184 C 556.843 825.352,552.150 829.711,543.221 843.754 L 532.032 861.354 523.899 849.064 C 509.476 827.271,509.208 824.422,519.162 798.749 C 527.240 777.918,528.124 772.380,527.663 745.500 C 527.380 729.000,525.925 713.933,524.429 712.017 C 522.762 709.883,522.927 707.781,524.854 706.590 C 526.584 705.521,528.000 702.093,528.000 698.972 C 528.000 695.851,529.716 692.219,531.813 690.899 C 536.613 687.879,543.000 673.583,543.000 665.859 C 543.000 656.949,535.198 658.866,531.089 668.784 C 529.088 673.616,525.372 678.366,522.832 679.341 C 518.820 680.881,518.495 678.257,520.359 659.343 C 522.624 636.355,528.774 622.111,537.649 619.294 C 540.592 618.360,543.000 616.431,543.000 615.006 C 543.000 611.659,554.779 609.294,562.500 611.090 C 565.800 611.858,577.950 613.118,589.500 613.891 M974.047 627.000 C 978.197 627.000,985.847 628.961,991.047 631.359 C 996.246 633.756,1005.214 636.118,1010.975 636.609 C 1022.472 637.587,1027.210 646.452,1019.361 652.302 C 1017.001 654.061,1013.486 662.925,1011.551 672.000 C 1009.616 681.075,1003.864 702.000,998.769 718.500 C 993.674 735.000,988.840 751.875,988.027 756.000 C 987.213 760.125,985.316 766.200,983.811 769.500 C 982.305 772.800,980.678 787.830,980.195 802.900 C 979.315 830.321,975.907 840.000,967.133 840.000 C 964.860 840.000,963.000 842.025,963.000 844.500 C 963.000 846.975,965.067 849.000,967.594 849.000 C 975.175 849.000,975.962 857.222,969.280 866.607 C 965.826 871.457,963.000 876.748,963.000 878.363 C 963.000 882.960,951.149 884.908,942.709 881.699 C 938.502 880.100,925.887 879.107,914.675 879.492 C 895.265 880.159,893.852 879.735,885.145 870.624 C 880.115 865.361,876.000 859.183,876.000 856.895 C 876.000 849.844,885.229 844.608,897.105 844.919 C 907.580 845.194,908.538 844.510,909.801 835.858 C 910.552 830.711,914.825 817.050,919.296 805.500 C 928.423 781.927,936.560 760.325,943.026 742.500 C 945.420 735.900,948.231 719.204,949.272 705.399 C 951.266 678.950,953.899 670.832,961.417 667.947 C 968.194 665.346,967.042 657.000,959.906 657.000 C 956.554 657.000,953.025 654.951,952.064 652.446 C 950.056 647.213,956.421 630.000,960.364 630.000 C 961.814 630.000,963.107 627.638,963.237 624.750 C 963.378 621.614,964.083 621.010,964.987 623.250 C 965.819 625.313,969.896 627.000,974.047 627.000 M796.978 640.454 C 807.621 641.610,812.829 641.013,813.652 638.545 C 814.328 636.517,817.587 638.803,821.145 643.800 C 826.394 651.171,827.045 654.815,825.057 665.687 C 822.505 679.644,818.491 683.881,807.750 683.954 C 799.940 684.007,798.863 690.491,805.719 696.182 C 813.643 702.758,822.000 722.134,822.000 733.927 C 822.000 740.069,820.472 757.006,818.605 771.566 C 815.473 795.986,815.706 799.399,821.605 815.577 C 829.060 836.022,829.594 843.943,823.840 848.718 C 820.605 851.403,816.103 850.223,803.590 843.413 C 783.317 832.378,758.910 828.519,752.150 835.278 C 749.553 837.875,745.387 840.000,742.891 840.000 C 740.396 840.000,737.520 841.350,736.500 843.000 C 733.412 847.996,723.519 846.362,721.675 840.552 C 720.724 837.555,721.369 827.768,723.108 818.802 C 724.947 809.327,725.478 789.307,724.378 771.000 C 722.699 743.066,723.190 737.928,728.721 725.616 C 734.413 712.942,757.253 687.000,762.719 687.000 C 763.974 687.000,765.000 684.818,765.000 682.150 C 765.000 677.429,761.554 677.432,750.000 682.161 C 747.027 683.378,743.094 680.463,738.408 673.567 C 730.122 661.374,731.323 651.099,741.840 644.208 C 753.991 636.247,756.583 636.070,796.978 640.454 M733.980 688.668 C 735.020 691.379,733.107 695.817,729.417 699.255 C 714.984 712.702,713.016 721.470,712.750 773.511 C 712.504 821.828,712.395 822.607,705.115 828.506 C 699.090 833.388,695.221 834.117,684.115 832.465 C 668.366 830.121,663.000 826.575,663.000 818.513 C 663.000 815.349,660.364 807.595,657.143 801.281 L 651.287 789.801 672.244 770.992 C 689.672 755.350,695.583 747.411,707.350 723.836 C 727.570 683.327,727.191 684.000,729.806 684.000 C 731.116 684.000,732.994 686.101,733.980 688.668 M609.639 837.206 C 633.048 846.364,640.422 856.821,652.270 897.657 C 655.877 910.089,657.074 924.546,656.616 950.157 C 654.795 1051.942,657.147 1161.751,661.685 1186.858 C 662.843 1193.261,665.146 1201.118,666.805 1204.318 C 668.463 1207.519,670.898 1218.994,672.216 1229.818 C 673.534 1240.643,676.123 1258.208,677.969 1268.851 C 679.814 1279.493,680.463 1293.298,679.411 1299.528 L 677.497 1310.855 660.499 1309.114 C 647.349 1307.768,639.764 1308.803,627.000 1313.685 C 602.506 1323.055,599.731 1322.341,590.297 1304.240 C 579.453 1283.432,577.367 1269.821,583.284 1258.474 C 585.857 1253.539,587.971 1247.049,587.982 1244.053 C 587.992 1241.057,589.296 1236.185,590.879 1233.226 C 593.663 1228.025,595.055 1149.500,592.852 1122.000 C 591.690 1107.505,588.653 1091.114,579.233 1048.500 C 569.414 1004.079,566.413 995.156,556.344 980.440 C 551.053 972.707,543.360 955.832,539.248 942.940 C 532.948 923.190,532.129 916.566,534.045 900.859 C 535.304 890.547,539.136 877.813,542.622 872.359 C 546.089 866.937,550.355 859.125,552.104 855.000 C 556.537 844.540,575.306 831.000,585.372 831.000 C 589.995 831.000,600.915 833.792,609.639 837.206 M430.716 841.898 C 450.667 848.507,470.557 867.000,457.714 867.000 C 449.617 867.000,443.561 876.171,445.582 885.371 C 447.647 894.777,445.357 895.695,423.609 894.185 C 413.235 893.465,405.000 898.067,405.000 904.584 C 405.000 907.527,410.823 908.076,429.750 906.918 C 451.762 905.570,455.229 904.539,461.095 897.597 L 467.689 889.791 470.953 898.377 C 472.779 903.180,474.626 933.517,475.145 967.231 C 476.203 1035.960,480.741 1061.082,503.913 1126.500 C 514.339 1155.936,516.862 1164.439,519.046 1177.500 C 522.452 1197.877,530.696 1221.225,537.054 1228.500 C 539.938 1231.800,544.473 1238.806,547.132 1244.068 C 549.791 1249.330,554.336 1255.422,557.233 1257.604 C 564.812 1263.315,568.942 1271.852,571.510 1287.115 C 573.481 1298.833,576.930 1304.975,591.348 1322.447 C 595.798 1327.841,591.901 1331.002,585.614 1327.098 C 582.801 1325.351,571.685 1322.176,560.911 1320.042 C 537.488 1315.403,530.943 1317.844,509.112 1339.367 C 498.035 1350.287,494.040 1352.564,489.821 1350.362 C 486.894 1348.835,478.763 1345.887,471.750 1343.812 C 464.738 1341.737,459.000 1339.052,459.000 1337.845 C 459.000 1336.638,455.803 1334.848,451.895 1333.867 C 444.084 1331.907,443.754 1325.819,449.764 1294.500 C 454.570 1269.453,453.365 1241.942,445.547 1198.199 C 432.026 1122.556,422.465 1080.663,416.859 1072.500 C 413.426 1067.502,402.729 1031.882,397.565 1008.254 C 394.891 996.019,390.070 982.311,386.851 977.791 C 383.633 973.272,381.000 968.289,381.000 966.718 C 381.000 965.148,376.478 957.931,370.952 950.681 C 365.425 943.432,358.669 933.168,355.938 927.873 C 353.207 922.578,347.700 914.973,343.700 910.972 C 336.972 904.244,336.692 902.809,339.963 891.820 C 345.596 872.902,359.584 853.316,371.604 847.518 C 377.597 844.627,389.250 841.246,397.500 840.005 C 405.750 838.764,413.272 837.580,414.216 837.374 C 415.159 837.168,422.584 839.204,430.716 841.898 M694.908 850.320 C 705.339 852.863,711.000 862.015,711.000 876.338 C 711.000 881.319,712.305 887.833,713.900 890.814 C 716.863 896.350,713.422 914.397,708.757 917.789 C 707.462 918.730,702.713 923.991,698.202 929.480 C 690.705 938.602,690.000 941.633,690.000 964.730 C 690.000 992.173,688.187 994.537,675.342 983.839 C 668.522 978.159,668.277 976.715,670.150 953.189 C 671.738 933.241,670.952 924.331,666.058 906.788 C 662.726 894.846,660.000 882.001,660.000 878.244 C 660.000 874.486,657.349 866.465,654.109 860.419 C 650.869 854.374,649.521 848.994,651.115 848.464 C 656.298 846.740,685.257 847.967,694.908 850.320 M784.514 851.586 C 810.920 857.192,819.087 879.974,804.748 908.024 C 802.070 913.262,796.756 918.970,792.940 920.709 C 789.123 922.449,786.000 925.941,786.000 928.471 C 786.000 932.179,788.394 932.688,798.341 931.097 C 810.291 929.187,810.611 929.350,808.422 936.246 C 807.179 940.163,801.068 950.148,794.843 958.434 C 779.220 979.230,774.773 998.343,772.490 1054.500 C 770.327 1107.714,769.019 1124.034,766.369 1130.887 C 757.875 1152.850,760.041 1214.485,769.832 1229.428 C 777.037 1240.424,770.463 1261.579,757.819 1268.090 C 745.456 1274.455,739.301 1281.892,733.223 1297.809 C 730.452 1305.064,726.953 1311.000,725.448 1311.000 C 723.942 1311.000,717.713 1313.396,711.605 1316.325 C 701.094 1321.365,690.144 1321.972,689.879 1317.530 C 684.968 1235.370,684.792 1238.145,697.003 1205.165 C 706.474 1179.584,708.296 1170.179,711.246 1131.665 C 715.537 1075.648,715.339 1066.537,709.179 1036.824 C 703.390 1008.901,702.656 954.903,707.893 942.259 C 709.808 937.635,715.341 930.919,720.188 927.336 C 728.570 921.139,729.000 919.726,729.000 898.410 C 729.000 881.905,730.038 876.000,732.940 876.000 C 735.107 876.000,738.729 871.288,740.989 865.528 C 743.249 859.768,747.551 854.277,750.549 853.326 C 753.547 852.374,756.000 850.168,756.000 848.423 C 756.000 846.390,759.502 846.044,765.750 847.461 C 771.113 848.677,779.556 850.534,784.514 851.586 M896.020 889.524 C 903.294 892.563,909.908 893.280,916.174 891.707 C 921.303 890.420,929.386 889.841,934.135 890.420 C 942.749 891.470,942.766 891.514,940.835 907.939 C 939.325 920.791,940.063 926.429,944.200 933.630 C 948.184 940.565,948.569 943.183,945.750 944.177 C 943.688 944.905,942.000 947.300,942.000 949.500 C 942.000 951.700,943.688 954.063,945.750 954.751 C 948.730 955.745,948.686 958.721,945.533 969.251 C 943.352 976.538,940.843 986.168,939.957 990.651 C 939.058 995.207,935.725 999.635,932.400 1000.691 C 928.184 1002.029,926.920 1004.371,928.061 1008.732 C 928.946 1012.117,927.216 1019.749,924.217 1025.693 C 910.798 1052.287,887.673 1137.776,888.374 1158.195 C 889.009 1176.659,882.471 1204.531,875.005 1215.189 C 872.252 1219.120,870.000 1224.060,870.000 1226.168 C 870.000 1231.517,878.813 1230.978,880.915 1225.500 C 881.865 1223.025,884.034 1221.000,885.735 1221.000 C 887.772 1221.000,888.116 1228.937,886.744 1244.250 C 883.940 1275.530,879.314 1292.753,872.585 1296.955 C 869.513 1298.874,867.000 1301.978,867.000 1303.854 C 867.000 1305.730,865.009 1308.918,862.575 1310.938 C 858.921 1313.970,857.504 1313.194,854.450 1306.491 C 850.498 1297.817,824.036 1284.000,811.375 1284.000 C 802.929 1284.000,777.000 1273.177,777.000 1269.651 C 777.000 1263.151,786.514 1236.000,788.791 1236.000 C 790.198 1236.000,792.119 1232.936,793.059 1229.190 C 794.860 1222.013,805.550 1209.000,809.644 1209.000 C 810.970 1209.000,814.600 1213.725,817.710 1219.500 C 823.696 1230.616,831.072 1233.553,830.894 1224.750 C 830.835 1221.863,828.858 1216.125,826.500 1212.000 C 820.239 1201.048,821.044 1192.394,829.583 1178.869 C 833.753 1172.262,840.613 1155.751,844.826 1142.178 C 849.040 1128.605,853.998 1114.383,855.845 1110.574 C 859.684 1102.655,860.807 1001.770,857.275 982.131 C 855.399 971.696,856.219 968.040,862.525 958.748 C 871.348 945.747,871.722 942.420,864.916 937.444 C 860.411 934.150,860.268 932.235,863.662 920.613 C 867.036 909.062,880.780 885.000,884.004 885.000 C 884.658 885.000,890.065 887.036,896.020 889.524 M759.000 892.160 C 759.000 894.447,762.713 897.021,767.250 897.879 C 771.788 898.737,778.538 900.398,782.250 901.569 C 790.512 904.177,791.491 898.052,783.750 892.176 C 776.615 886.760,759.000 886.748,759.000 892.160 M581.250 906.240 C 578.363 907.922,576.000 911.425,576.000 914.024 C 576.000 917.717,578.049 918.340,585.375 916.875 C 590.531 915.844,597.956 915.000,601.875 915.000 C 605.965 915.000,609.000 913.220,609.000 910.821 C 609.000 903.223,591.415 900.320,581.250 906.240 M542.020 979.500 C 556.495 1007.771,567.081 1041.623,571.363 1073.326 C 573.591 1089.822,568.096 1092.429,553.907 1081.607 C 540.751 1071.572,540.254 1070.117,538.391 1036.165 C 537.541 1020.666,535.530 1004.525,533.923 1000.297 C 532.315 996.069,531.000 989.363,531.000 985.396 C 531.000 977.948,523.601 962.981,512.492 947.954 C 506.571 939.945,506.404 938.343,510.117 925.083 L 514.109 910.824 520.385 930.162 C 523.837 940.798,533.573 963.000,542.020 979.500 M333.063 937.533 C 344.992 943.701,357.000 962.142,357.000 974.293 C 357.000 1000.814,339.755 1015.430,304.754 1018.575 C 284.047 1020.435,281.908 1019.284,268.890 999.275 C 261.134 987.353,260.476 984.395,262.213 969.275 C 264.384 950.382,269.158 945.000,283.746 945.000 C 289.025 945.000,299.230 942.330,306.422 939.066 C 322.262 931.879,322.143 931.885,333.063 937.533 M379.555 998.250 C 380.560 1004.438,382.646 1012.601,384.191 1016.391 C 385.736 1020.181,387.000 1026.011,387.000 1029.345 C 387.000 1035.397,386.984 1035.397,378.287 1029.204 C 373.495 1025.792,368.432 1022.979,367.037 1022.954 C 365.642 1022.929,362.722 1021.781,360.549 1020.403 C 357.391 1018.401,357.843 1015.682,362.799 1006.858 C 366.210 1000.786,369.000 993.834,369.000 991.409 C 369.000 981.658,377.785 987.353,379.555 998.250 M676.500 999.000 C 677.520 1000.650,681.729 1002.000,685.854 1002.000 C 689.979 1002.000,692.577 1003.258,691.626 1004.796 C 690.676 1006.334,691.839 1018.821,694.210 1032.546 C 697.197 1049.829,698.128 1071.795,697.240 1104.000 C 695.573 1164.483,694.210 1173.857,681.967 1209.000 C 677.937 1220.568,674.160 1194.136,672.049 1139.585 C 670.795 1107.182,668.776 1079.065,667.563 1077.102 C 664.635 1072.364,668.961 996.000,672.158 996.000 C 673.526 996.000,675.480 997.350,676.500 999.000 M349.303 1031.607 C 356.011 1034.691,365.812 1038.874,371.082 1040.902 C 381.860 1045.049,393.375 1064.417,390.836 1074.126 C 389.172 1080.490,384.000 1082.243,384.000 1076.443 C 384.000 1071.497,371.805 1059.000,366.977 1059.000 C 361.713 1059.000,361.923 1064.837,367.405 1070.895 C 373.874 1078.044,373.649 1090.333,366.510 1119.690 C 360.832 1143.038,360.460 1149.246,363.079 1176.887 C 365.616 1203.662,367.551 1210.857,377.258 1229.605 C 397.408 1268.520,399.459 1272.000,402.247 1272.000 C 407.516 1272.000,404.960 1283.811,399.000 1287.000 C 391.663 1290.927,390.444 1308.000,397.500 1308.000 C 399.975 1308.000,402.000 1306.022,402.000 1303.606 C 402.000 1301.189,404.791 1297.718,408.201 1295.892 C 418.355 1290.458,428.191 1299.056,430.660 1315.523 C 432.443 1327.414,431.632 1330.708,424.327 1341.250 C 410.330 1361.448,404.001 1364.374,375.779 1363.696 C 349.331 1363.060,347.000 1361.942,326.250 1339.936 C 316.104 1329.176,316.009 1324.873,325.471 1304.548 C 335.105 1283.852,335.016 1280.559,324.852 1281.636 C 317.226 1282.445,316.548 1281.537,314.277 1267.500 C 312.943 1259.250,311.353 1245.075,310.743 1236.000 C 310.134 1226.925,308.057 1212.750,306.128 1204.500 C 304.198 1196.250,301.219 1182.075,299.507 1173.000 C 297.795 1163.925,293.830 1147.515,290.697 1136.534 C 284.053 1113.249,283.575 1103.200,288.722 1094.959 C 291.684 1090.216,291.684 1087.784,288.722 1083.041 C 286.675 1079.763,285.000 1075.038,285.000 1072.541 C 285.000 1066.657,274.170 1066.623,271.915 1072.500 C 268.628 1081.067,264.000 1076.951,264.000 1065.459 C 264.000 1050.091,272.509 1040.010,283.214 1042.696 C 289.108 1044.176,291.000 1043.511,291.000 1039.961 C 291.000 1036.865,294.823 1034.655,302.250 1033.456 C 308.438 1032.457,318.225 1030.511,324.000 1029.130 C 329.775 1027.750,335.086 1026.481,335.803 1026.310 C 336.519 1026.140,342.594 1028.523,349.303 1031.607 M425.771 1159.500 C 437.007 1208.285,441.908 1249.914,439.294 1274.358 L 437.278 1293.217 429.389 1288.123 C 417.379 1280.369,408.270 1269.635,406.050 1260.623 C 404.949 1256.155,401.042 1248.450,397.367 1243.500 C 381.613 1222.280,376.936 1208.490,375.564 1179.219 C 373.750 1140.538,383.215 1092.000,392.570 1092.000 C 393.899 1092.000,396.877 1088.467,399.188 1084.148 C 403.338 1076.394,403.474 1076.572,410.090 1098.398 C 413.774 1110.554,420.831 1138.050,425.771 1159.500 M799.540 1291.450 C 834.066 1301.120,842.605 1305.335,848.742 1315.737 L 854.629 1325.714 848.064 1327.705 C 844.454 1328.800,837.203 1332.915,831.950 1336.848 C 826.698 1340.782,820.285 1344.000,817.700 1344.000 C 815.115 1344.000,813.000 1345.921,813.000 1348.270 C 813.000 1350.618,809.625 1356.551,805.500 1361.453 C 799.313 1368.805,798.000 1373.536,798.000 1388.469 C 798.000 1407.328,792.841 1417.286,784.690 1414.158 C 779.864 1412.306,768.000 1386.156,768.000 1377.371 C 768.000 1374.062,766.762 1370.589,765.248 1369.654 C 759.607 1366.167,741.000 1324.094,741.000 1314.825 C 741.000 1301.711,749.836 1284.000,756.379 1284.000 C 759.276 1284.000,762.477 1282.655,763.493 1281.011 C 764.667 1279.112,768.301 1279.553,773.460 1282.221 C 777.925 1284.530,789.661 1288.683,799.540 1291.450 M673.356 1320.486 L 690.712 1323.971 688.960 1339.236 C 687.052 1355.852,690.803 1377.768,695.841 1379.447 C 697.579 1380.026,699.000 1383.008,699.000 1386.073 C 699.000 1389.138,700.350 1392.480,702.000 1393.500 C 711.699 1399.495,700.125 1430.974,684.923 1439.943 C 673.311 1446.794,671.760 1457.726,680.250 1472.893 C 685.332 1481.972,685.308 1482.387,679.500 1485.886 C 662.090 1496.373,655.558 1496.792,623.809 1489.456 C 606.962 1485.563,592.118 1481.281,590.823 1479.939 C 586.630 1475.598,584.023 1455.000,587.666 1455.000 C 589.500 1455.000,591.000 1452.928,591.000 1450.394 C 591.000 1444.544,599.032 1431.929,609.704 1421.019 C 614.267 1416.355,618.000 1409.200,618.000 1405.120 C 618.000 1397.560,610.238 1379.849,605.604 1376.837 C 604.197 1375.923,602.182 1368.871,601.126 1361.166 C 598.527 1342.201,604.011 1334.399,624.498 1327.917 C 633.299 1325.133,642.525 1321.558,645.000 1319.973 C 650.778 1316.274,652.541 1316.305,673.356 1320.486 M731.521 1333.516 C 732.082 1338.446,733.463 1343.160,734.590 1343.990 C 741.320 1348.950,759.000 1382.243,759.000 1389.957 C 759.000 1398.264,769.468 1419.404,775.158 1422.588 C 778.678 1424.558,778.699 1426.663,775.292 1436.209 C 773.076 1442.419,771.204 1450.372,771.132 1453.883 C 771.007 1459.939,763.275 1469.275,760.599 1466.599 C 756.943 1462.943,744.000 1442.377,744.000 1440.223 C 744.000 1436.232,725.268 1419.000,720.930 1419.000 C 718.769 1419.000,717.000 1416.470,717.000 1413.377 C 717.000 1406.490,708.684 1382.357,705.541 1380.122 C 704.286 1379.230,701.726 1373.352,699.852 1367.061 C 695.391 1352.082,700.438 1336.938,712.576 1328.878 C 724.351 1321.060,730.267 1322.508,731.521 1333.516 M572.270 1333.831 L 587.229 1338.662 588.968 1355.515 C 590.007 1365.583,592.578 1373.734,595.354 1375.764 C 597.909 1377.633,600.000 1380.767,600.000 1382.730 C 600.000 1384.692,602.104 1390.367,604.676 1395.340 C 609.243 1404.173,609.115 1404.645,599.151 1415.674 C 593.541 1421.884,586.421 1431.248,583.328 1436.483 C 576.700 1447.703,576.041 1447.841,566.906 1439.918 C 563.049 1436.573,556.430 1433.086,552.197 1432.168 C 547.964 1431.250,543.001 1430.051,541.169 1429.504 C 539.337 1428.957,537.152 1422.423,536.313 1414.983 C 535.475 1407.544,529.742 1391.106,523.575 1378.455 L 512.361 1355.452 524.105 1344.168 C 541.641 1327.318,547.926 1325.969,572.270 1333.831 M904.412 1337.250 C 914.119 1347.713,916.433 1355.029,912.590 1363.107 C 910.917 1366.623,906.050 1376.853,901.774 1385.839 C 897.498 1394.826,894.000 1405.032,894.000 1408.520 C 894.000 1417.094,876.974 1434.000,868.339 1434.000 C 864.518 1434.000,857.679 1435.411,853.144 1437.135 C 847.712 1439.200,842.268 1439.284,837.198 1437.379 C 832.964 1435.789,826.125 1433.762,822.000 1432.874 C 805.048 1429.227,803.529 1425.818,807.176 1399.602 C 809.106 1385.727,812.859 1372.411,816.138 1367.806 C 824.996 1355.367,852.677 1337.904,870.373 1333.593 C 893.734 1327.901,895.959 1328.140,904.412 1337.250 M456.978 1352.734 C 463.164 1355.888,474.926 1359.390,483.117 1360.516 C 494.334 1362.059,499.480 1364.530,503.971 1370.532 C 507.251 1374.914,511.299 1380.131,512.967 1382.123 C 514.635 1384.116,516.000 1387.749,516.000 1390.196 C 516.000 1392.644,517.350 1395.480,519.000 1396.500 C 520.650 1397.520,522.000 1403.088,522.000 1408.874 C 522.000 1414.660,523.333 1421.885,524.962 1424.928 C 527.063 1428.856,526.633 1432.935,523.480 1438.981 C 521.036 1443.666,519.025 1448.850,519.011 1450.500 C 518.974 1454.874,503.819 1471.383,494.293 1477.427 C 486.477 1482.385,485.351 1482.369,470.653 1477.084 C 460.246 1473.342,451.449 1467.251,443.644 1458.383 C 432.838 1446.108,430.788 1445.100,412.846 1443.243 C 392.643 1441.152,385.020 1437.073,380.859 1426.129 C 377.622 1417.616,382.882 1398.143,390.312 1391.133 C 393.440 1388.181,396.000 1384.469,396.000 1382.883 C 396.000 1381.297,398.025 1380.000,400.500 1380.000 C 402.975 1380.000,405.000 1378.650,405.000 1377.000 C 405.000 1375.350,406.744 1374.000,408.875 1374.000 C 411.007 1374.000,418.713 1367.925,426.000 1360.500 C 433.287 1353.075,440.708 1347.000,442.490 1347.000 C 444.273 1347.000,450.792 1349.580,456.978 1352.734 M723.000 1434.000 C 726.300 1437.300,729.000 1441.712,729.000 1443.804 C 729.000 1445.896,732.334 1452.514,736.410 1458.511 C 742.829 1467.958,743.230 1469.905,739.408 1473.076 C 736.982 1475.090,728.949 1477.419,721.557 1478.252 C 705.335 1480.081,695.143 1474.465,690.498 1461.138 C 687.459 1452.421,687.800 1451.746,697.242 1447.801 C 703.680 1445.111,707.880 1440.887,709.151 1435.823 C 711.506 1426.440,714.982 1425.982,723.000 1434.000 M806.055 1440.271 C 810.700 1442.071,823.950 1445.149,835.500 1447.111 L 856.500 1450.680 858.541 1467.090 C 860.417 1482.174,859.932 1484.187,852.541 1492.008 C 840.158 1505.110,835.299 1506.823,822.651 1502.544 C 816.518 1500.469,808.713 1496.348,805.307 1493.386 C 801.900 1490.424,797.850 1487.995,796.307 1487.989 C 794.763 1487.983,788.957 1485.208,783.404 1481.822 C 774.804 1476.580,773.972 1475.136,777.790 1472.084 C 780.255 1470.113,783.045 1463.317,783.991 1456.982 C 785.696 1445.559,790.485 1437.000,795.172 1437.000 C 796.513 1437.000,801.410 1438.472,806.055 1440.271 M555.664 1443.165 C 567.741 1448.668,576.000 1464.140,576.000 1481.263 L 576.000 1496.654 591.750 1496.555 C 600.413 1496.500,616.861 1498.265,628.301 1500.478 C 646.814 1504.057,649.336 1505.378,651.221 1512.484 C 652.386 1516.875,659.673 1526.536,667.415 1533.954 C 684.539 1550.362,684.849 1558.636,668.666 1567.301 C 658.122 1572.946,657.120 1572.961,631.177 1567.864 C 616.516 1564.983,598.845 1560.116,591.909 1557.048 C 584.972 1553.979,572.135 1550.574,563.382 1549.480 C 554.628 1548.387,544.774 1545.503,541.483 1543.073 C 535.878 1538.932,535.831 1538.466,540.750 1535.678 C 548.859 1531.081,547.624 1522.755,539.250 1525.566 C 527.460 1529.524,503.026 1526.934,489.792 1520.325 C 478.081 1514.476,477.000 1512.967,477.000 1502.468 C 477.000 1491.696,477.553 1491.000,486.106 1491.000 C 495.852 1491.000,509.032 1483.942,515.420 1475.302 C 517.576 1472.386,520.972 1470.000,522.966 1470.000 C 524.960 1470.000,528.989 1463.250,531.919 1455.000 C 537.571 1439.087,541.938 1436.911,555.664 1443.165 M792.268 1501.787 C 802.846 1506.894,815.213 1512.603,819.750 1514.472 C 824.288 1516.342,828.000 1519.295,828.000 1521.036 C 828.000 1526.297,807.904 1544.680,800.460 1546.228 C 794.132 1547.544,776.909 1550.647,741.608 1556.833 C 722.563 1560.170,699.000 1557.313,699.000 1551.666 C 699.000 1549.153,691.575 1539.904,682.500 1531.115 C 673.425 1522.325,666.019 1513.416,666.043 1511.317 C 666.067 1509.218,672.569 1503.927,680.491 1499.559 C 693.652 1492.304,696.276 1491.869,710.885 1494.525 C 730.850 1498.153,739.022 1496.168,748.662 1485.348 L 756.253 1476.829 764.645 1484.665 C 769.260 1488.974,781.690 1496.679,792.268 1501.787 " />

    <path stroke="#000" stroke-width="3"
      d="M172.500 146.862 C 152.934 154.955,144.176 186.533,154.049 213.393 C 160.116 229.902,165.585 279.432,161.773 283.350 C 156.308 288.967,158.844 302.442,166.500 308.464 C 172.298 313.025,174.000 317.125,174.000 326.533 C 174.000 335.001,175.596 339.597,179.250 341.645 C 182.542 343.490,184.556 348.300,184.651 354.544 C 185.280 396.080,185.542 397.200,199.500 418.013 L 213.000 438.142 213.000 480.624 C 213.000 529.658,217.742 552.001,231.300 566.845 C 236.085 572.084,240.000 578.573,240.000 581.266 C 240.000 588.958,254.840 636.372,260.887 648.000 C 263.890 653.775,267.264 662.830,268.384 668.121 C 269.504 673.413,272.891 682.863,275.910 689.121 C 286.285 710.622,290.895 730.586,295.510 774.000 C 298.054 797.925,300.874 819.873,301.777 822.772 C 303.954 829.765,329.369 849.000,336.431 849.000 C 344.158 849.000,343.398 854.579,333.766 868.554 C 327.267 877.984,325.427 884.291,325.031 898.500 C 324.554 915.648,324.149 916.546,316.462 917.479 C 312.024 918.017,304.142 921.049,298.947 924.217 C 293.751 927.385,284.934 929.983,279.354 929.989 C 267.749 930.002,249.980 939.842,247.917 947.399 C 240.623 974.109,246.117 999.670,262.387 1014.721 L 271.274 1022.942 259.747 1034.747 C 248.565 1046.199,248.263 1047.067,249.649 1063.780 C 250.861 1078.401,252.509 1082.287,260.539 1089.462 C 265.742 1094.111,270.000 1100.663,270.000 1104.021 C 270.000 1107.379,272.658 1119.886,275.906 1131.813 C 289.385 1181.310,297.293 1220.172,300.335 1251.874 C 307.592 1327.496,309.867 1341.000,315.350 1341.000 C 316.807 1341.000,318.042 1343.363,318.093 1346.250 C 318.144 1349.138,324.410 1356.192,332.017 1361.926 C 344.035 1370.985,348.536 1372.504,366.351 1373.510 L 386.854 1374.669 376.793 1387.084 C 371.259 1393.913,365.833 1402.438,364.734 1406.030 C 362.205 1414.292,369.858 1432.931,380.220 1443.750 C 386.952 1450.778,390.549 1452.000,404.500 1452.000 C 419.545 1452.000,422.031 1453.037,435.047 1464.750 C 442.841 1471.763,452.768 1480.435,457.108 1484.023 C 462.966 1488.865,465.000 1493.335,465.000 1501.367 C 465.000 1508.218,466.651 1512.822,469.500 1513.915 C 471.975 1514.865,474.000 1517.389,474.000 1519.525 C 474.000 1524.819,492.323 1535.231,506.164 1537.801 C 512.399 1538.958,521.550 1542.920,526.500 1546.604 C 531.450 1550.288,544.950 1555.619,556.500 1558.451 C 568.050 1561.283,578.850 1564.658,580.500 1565.951 C 582.150 1567.244,595.170 1571.834,609.434 1576.151 C 635.900 1584.161,669.953 1586.739,673.500 1581.000 C 674.520 1579.350,679.999 1578.000,685.677 1578.000 C 692.853 1578.000,696.000 1576.628,696.000 1573.500 C 696.000 1568.096,703.526 1567.787,721.977 1572.433 C 730.052 1574.466,736.404 1574.752,737.555 1573.133 C 740.097 1569.562,762.375 1563.874,783.069 1561.512 C 792.106 1560.481,802.259 1559.088,805.631 1558.417 C 814.143 1556.722,835.387 1536.642,842.042 1524.000 C 845.082 1518.225,853.291 1507.708,860.285 1500.629 C 873.220 1487.535,875.069 1482.565,870.359 1473.553 C 865.801 1464.832,870.018 1448.863,877.817 1445.310 C 881.704 1443.538,885.634 1439.729,886.550 1436.843 C 887.466 1433.957,891.542 1430.762,895.608 1429.741 C 901.504 1428.261,903.000 1425.976,903.000 1418.449 C 903.000 1413.260,907.725 1399.059,913.500 1386.892 C 919.684 1373.864,924.000 1360.160,924.000 1353.553 C 924.000 1341.521,917.193 1329.000,910.651 1329.000 C 908.446 1329.000,905.800 1326.805,904.771 1324.123 C 903.278 1320.235,899.869 1319.538,887.950 1320.683 C 870.761 1322.334,869.757 1320.318,880.654 1306.031 C 897.118 1284.446,905.564 1234.876,896.516 1212.945 C 894.599 1208.300,893.368 1203.150,893.781 1201.500 C 896.713 1189.766,900.487 1161.925,901.711 1143.000 C 902.511 1130.625,905.046 1115.100,907.343 1108.500 C 909.640 1101.900,913.691 1088.738,916.344 1079.250 C 918.997 1069.763,922.480 1062.000,924.084 1062.000 C 925.688 1062.000,927.001 1058.963,927.002 1055.250 C 927.003 1048.583,936.226 1021.776,941.986 1011.696 C 956.716 985.918,963.612 945.688,955.868 930.713 C 949.117 917.657,949.614 902.184,957.000 895.500 C 960.300 892.514,963.000 888.254,963.000 886.035 C 963.000 883.816,964.865 882.000,967.144 882.000 C 969.423 882.000,975.044 877.076,979.634 871.057 C 986.873 861.566,987.558 858.994,984.795 851.672 C 982.318 845.110,982.543 842.454,985.804 839.748 C 988.634 837.399,990.000 829.728,990.000 816.184 C 990.000 805.139,991.450 788.092,993.222 778.301 C 998.052 751.613,1016.749 693.668,1026.448 675.328 C 1032.741 663.428,1035.000 654.955,1035.000 643.255 C 1035.000 634.509,1036.369 626.508,1038.043 625.474 C 1042.850 622.503,1053.000 600.911,1053.000 593.657 C 1053.000 590.036,1048.647 574.394,1043.328 558.896 L 1033.655 530.717 1040.302 512.109 C 1043.958 501.874,1048.377 486.750,1050.121 478.500 C 1051.866 470.250,1054.721 458.100,1056.466 451.500 C 1061.577 432.166,1062.066 367.146,1057.261 345.667 C 1054.260 332.252,1053.774 321.464,1055.573 308.167 C 1060.331 272.995,1051.659 235.441,1037.950 231.856 C 1034.906 231.060,1031.689 228.517,1030.802 226.204 C 1028.930 221.326,1014.000 220.435,1014.000 225.201 C 1014.000 226.962,1009.390 232.751,1003.755 238.065 C 991.008 250.087,987.755 264.945,992.667 288.722 C 996.602 307.776,994.953 322.729,987.085 339.327 C 980.797 352.593,979.517 380.973,984.576 394.963 C 987.704 403.615,987.615 405.766,984.037 407.977 C 980.646 410.073,979.953 417.407,980.719 443.063 C 983.277 528.680,984.750 519.094,962.355 562.500 C 954.944 576.862,952.104 597.145,956.423 604.863 C 958.982 609.436,957.892 611.823,950.381 618.093 L 941.217 625.744 940.426 667.622 C 939.813 700.040,938.194 714.244,933.256 730.500 C 929.747 742.050,925.423 756.900,923.646 763.500 C 921.869 770.100,919.239 777.777,917.801 780.560 C 916.363 783.344,912.485 793.306,909.184 802.699 C 900.625 827.050,895.660 833.417,883.441 835.709 C 869.409 838.341,865.849 845.676,868.260 866.986 C 869.750 880.157,869.182 884.944,865.795 887.756 C 854.004 897.541,842.980 930.247,849.020 937.525 C 851.788 940.860,851.437 944.773,847.428 955.272 C 844.141 963.879,843.049 971.764,844.404 977.120 C 854.231 1015.970,849.134 1095.898,834.167 1137.648 C 822.272 1170.827,811.842 1189.609,797.875 1203.000 C 790.130 1210.425,783.043 1218.525,782.126 1221.000 C 780.642 1225.000,780.090 1225.000,777.157 1221.000 C 775.343 1218.525,774.384 1213.430,775.027 1209.678 C 775.669 1205.927,775.095 1202.177,773.750 1201.345 C 770.742 1199.486,772.267 1173.751,778.155 1127.028 C 780.613 1107.519,782.682 1077.486,782.753 1060.289 C 782.954 1011.513,787.164 991.477,801.088 973.035 C 821.314 946.246,826.033 936.036,821.824 928.171 C 818.941 922.785,818.996 918.655,822.083 908.430 C 824.231 901.319,826.183 888.670,826.422 880.322 C 826.743 869.093,828.566 863.434,833.428 858.572 C 842.296 849.704,841.923 833.756,832.366 813.225 C 826.331 800.261,825.186 794.311,826.736 783.975 C 827.806 776.839,830.078 771.000,831.785 771.000 C 836.159 771.000,832.622 721.793,827.094 705.749 C 824.022 696.831,823.723 692.993,826.101 692.977 C 831.258 692.941,837.187 678.323,839.093 660.946 C 840.700 646.294,840.239 644.880,831.149 636.578 C 822.020 628.240,819.773 627.686,789.500 626.317 C 759.419 624.957,752.935 625.880,735.529 633.999 C 727.630 637.683,720.000 653.542,720.000 666.274 C 720.000 675.577,709.047 699.000,704.697 699.000 C 703.214 699.000,701.970 701.363,701.934 704.250 C 701.838 711.877,692.070 732.150,683.716 742.058 C 671.548 756.490,655.921 771.000,652.546 771.000 C 648.456 771.000,650.541 746.253,654.861 743.516 C 656.968 742.181,656.231 734.817,652.609 721.016 C 649.647 709.732,646.822 687.000,646.330 670.500 C 645.839 654.000,645.338 638.816,645.218 636.759 C 644.893 631.177,624.181 609.247,614.512 604.248 C 601.667 597.605,537.042 599.515,529.815 606.750 C 526.931 609.638,523.415 612.000,522.001 612.000 C 520.588 612.000,516.501 619.763,512.919 629.250 C 506.834 645.370,506.626 648.465,509.742 676.500 C 511.576 693.000,513.381 724.725,513.754 747.000 C 514.418 786.744,514.278 787.723,506.216 799.446 C 501.697 806.017,498.000 814.307,498.000 817.869 C 498.000 825.945,506.210 844.378,515.730 857.675 C 522.094 866.565,522.476 868.536,518.924 874.137 C 493.664 913.960,488.581 939.985,502.500 958.233 C 506.625 963.641,510.000 970.301,510.000 973.033 C 510.000 975.765,511.083 978.000,512.407 978.000 C 516.775 978.000,524.745 1006.223,524.691 1021.500 C 524.631 1038.445,525.669 1048.788,529.293 1067.362 C 532.314 1082.847,547.816 1097.232,564.347 1099.892 C 574.602 1101.543,575.376 1102.481,578.515 1117.069 C 584.121 1143.126,585.172 1184.861,581.000 1215.825 C 576.345 1250.386,573.323 1255.167,562.540 1245.037 C 558.393 1241.142,555.000 1236.899,555.000 1235.610 C 555.000 1234.321,551.697 1228.399,547.660 1222.450 C 543.622 1216.500,538.046 1203.953,535.268 1194.566 C 525.763 1162.446,518.648 1135.499,516.110 1122.000 C 513.537 1108.322,507.494 1089.537,497.772 1065.000 C 489.847 1044.995,484.247 973.815,489.030 953.876 C 492.952 937.525,491.028 906.587,485.408 895.647 C 483.671 892.266,479.484 886.463,476.102 882.750 C 472.721 879.038,471.539 876.000,473.477 876.000 C 480.854 876.000,476.598 860.115,465.226 845.201 C 456.244 833.422,454.110 828.532,456.226 824.578 C 461.026 815.609,459.253 794.889,452.448 780.425 C 448.674 772.403,438.182 759.524,427.698 750.045 C 403.227 727.918,388.498 702.793,380.694 669.867 C 377.257 655.365,372.031 636.075,369.080 627.000 C 349.615 567.135,347.548 558.560,349.461 545.609 C 351.051 534.844,349.983 529.853,343.488 517.696 C 336.787 505.152,336.128 501.866,339.173 496.177 C 344.252 486.686,340.929 476.962,326.851 460.120 C 306.202 435.417,294.651 413.018,289.565 387.822 C 283.796 359.237,279.965 349.014,270.858 337.908 C 266.433 332.512,264.480 327.212,265.608 323.658 C 268.368 314.963,264.301 306.000,257.596 306.000 C 252.752 306.000,252.000 304.700,253.694 299.250 C 254.849 295.538,256.965 292.050,258.397 291.500 C 264.571 289.128,260.037 278.376,247.500 265.659 C 236.637 254.640,234.000 249.897,234.000 241.377 C 234.000 235.554,232.128 227.799,229.841 224.144 C 227.553 220.490,223.989 208.199,221.922 196.831 C 219.745 184.862,215.814 173.814,212.581 170.581 C 209.512 167.512,207.000 162.550,207.000 159.556 C 207.000 156.277,202.782 152.100,196.398 149.056 C 184.726 143.489,181.393 143.184,172.500 146.862 M202.956 178.500 C 208.156 188.400,212.551 201.225,212.722 207.000 C 213.136 220.964,218.569 240.000,222.141 240.000 C 223.713 240.000,225.000 248.246,225.000 258.325 C 225.000 276.554,225.041 276.640,232.787 274.696 C 237.070 273.621,242.330 274.199,244.477 275.981 C 250.364 280.866,246.447 291.000,238.673 291.000 C 235.028 291.000,228.938 294.308,225.140 298.351 C 218.750 305.153,216.748 305.568,198.367 303.907 C 176.786 301.957,162.814 295.802,171.982 292.284 C 175.802 290.818,176.965 286.674,176.855 274.929 C 176.702 258.608,167.798 211.798,164.154 208.154 C 162.969 206.969,162.000 198.550,162.000 189.443 C 162.000 168.903,170.037 158.201,184.406 159.609 C 192.146 160.367,194.908 163.181,202.956 178.500 M1030.740 238.312 C 1033.111 240.683,1037.862 249.120,1041.296 257.062 C 1046.682 269.514,1047.303 275.335,1045.818 299.384 C 1044.578 319.461,1045.452 333.438,1048.938 349.304 C 1052.121 363.789,1053.055 376.178,1051.663 385.460 C 1049.748 398.232,1048.922 399.383,1043.023 397.510 C 1027.754 392.662,1020.357 392.628,1013.121 397.369 C 1005.900 402.100,1005.352 402.017,1000.782 395.493 C 995.313 387.683,994.347 361.740,999.064 349.333 C 1000.748 344.901,1003.370 332.496,1004.890 321.765 C 1007.097 306.179,1006.707 299.890,1002.949 290.498 C 996.688 274.850,999.238 258.141,1009.933 244.737 C 1019.214 233.106,1024.043 231.614,1030.740 238.312 M247.897 311.250 C 256.662 321.441,256.663 321.392,247.500 330.000 C 236.378 340.448,237.561 346.125,250.359 343.724 C 264.022 341.161,267.348 346.619,275.823 385.500 C 279.419 402.000,283.292 417.055,284.431 418.956 C 287.775 424.542,314.447 462.832,320.710 471.037 C 328.666 481.462,324.350 486.457,296.114 499.502 C 273.485 509.958,250.341 513.095,232.048 508.187 C 224.858 506.258,221.443 495.249,225.684 487.670 C 227.362 484.672,227.203 472.760,225.275 456.992 C 222.848 437.151,220.096 428.023,213.326 417.357 C 200.554 397.237,194.398 373.881,196.776 354.566 C 198.482 340.706,197.905 337.857,192.340 332.673 C 187.132 327.821,186.550 325.578,189.210 320.608 C 192.055 315.292,194.331 314.758,206.812 316.474 C 219.426 318.209,222.189 317.530,229.824 310.818 C 234.596 306.622,239.018 303.147,239.651 303.095 C 240.284 303.043,243.995 306.713,247.897 311.250 M1040.683 413.704 C 1045.807 418.491,1050.000 424.500,1050.000 427.057 C 1050.000 431.509,1044.938 451.079,1036.305 480.000 C 1022.833 525.132,1022.209 529.002,1025.995 543.945 C 1028.008 551.890,1031.655 562.400,1034.100 567.301 C 1038.842 576.807,1040.233 597.340,1036.853 607.927 C 1034.463 615.411,1019.963 622.200,1006.369 622.200 C 992.243 622.200,973.294 606.138,971.041 592.254 C 968.809 578.497,971.631 563.953,976.927 561.921 C 979.167 561.061,981.000 558.073,981.000 555.279 C 981.000 552.486,982.201 548.918,983.668 547.350 C 985.135 545.783,988.517 536.844,991.183 527.487 C 995.449 512.514,995.596 505.235,992.412 466.759 C 988.974 425.202,989.072 422.840,994.411 418.936 C 997.499 416.678,1002.235 415.408,1004.935 416.114 C 1007.635 416.820,1013.142 414.653,1017.172 411.299 C 1026.934 403.174,1029.715 403.459,1040.683 413.704 M339.000 537.386 C 339.000 546.911,334.680 548.214,325.677 541.405 C 318.747 536.164,312.000 535.661,312.000 540.386 C 312.000 542.249,316.769 549.052,322.599 555.504 C 328.428 561.956,333.996 571.232,334.974 576.118 C 335.951 581.003,337.819 585.000,339.125 585.000 C 342.478 585.000,353.765 622.768,358.414 649.540 C 360.567 661.934,363.728 673.762,365.439 675.824 C 367.150 677.886,371.521 687.656,375.153 697.536 C 378.784 707.416,384.285 718.287,387.378 721.693 C 390.470 725.100,393.000 729.542,393.000 731.564 C 393.000 735.921,436.705 780.000,441.025 780.000 C 442.661 780.000,444.000 782.620,444.000 785.823 C 444.000 789.026,445.350 792.480,447.000 793.500 C 450.923 795.925,450.843 810.867,446.860 819.609 C 443.913 826.076,441.925 826.518,414.558 826.799 C 389.855 827.053,382.950 828.269,369.400 834.754 C 352.843 842.678,347.954 842.571,329.267 833.881 C 316.956 828.156,309.000 812.455,309.000 793.888 C 309.000 759.836,300.497 711.812,290.792 691.054 C 281.807 671.837,276.087 656.220,259.361 605.232 C 252.945 585.676,252.225 580.173,254.847 570.732 C 260.240 551.313,257.082 546.471,245.725 556.749 C 240.894 561.121,240.165 560.943,236.540 554.499 C 233.061 548.316,225.171 526.014,225.043 522.000 C 225.017 521.175,237.484 520.899,252.748 521.386 C 278.406 522.205,281.858 521.600,298.500 513.366 L 316.500 504.461 327.750 516.616 C 335.316 524.791,339.000 531.593,339.000 537.386 M589.500 613.891 C 614.428 615.558,623.786 621.139,629.568 637.787 C 633.793 649.948,636.271 675.050,633.236 674.933 C 632.281 674.897,628.125 672.227,624.000 669.000 C 608.802 657.112,603.153 664.517,617.337 677.732 C 625.544 685.379,639.333 705.192,642.578 714.000 C 643.490 716.475,643.138 731.505,641.797 747.400 C 639.947 769.332,640.392 780.183,643.644 792.400 C 649.175 813.183,649.114 825.075,643.433 833.186 L 638.866 839.706 624.942 830.309 C 608.484 819.202,585.255 815.975,566.443 822.184 C 556.843 825.352,552.150 829.711,543.221 843.754 L 532.032 861.354 523.899 849.064 C 509.476 827.271,509.208 824.422,519.162 798.749 C 527.240 777.918,528.124 772.380,527.663 745.500 C 527.380 729.000,525.925 713.933,524.429 712.017 C 522.762 709.883,522.927 707.781,524.854 706.590 C 526.584 705.521,528.000 702.093,528.000 698.972 C 528.000 695.851,529.716 692.219,531.813 690.899 C 536.613 687.879,543.000 673.583,543.000 665.859 C 543.000 656.949,535.198 658.866,531.089 668.784 C 529.088 673.616,525.372 678.366,522.832 679.341 C 518.820 680.881,518.495 678.257,520.359 659.343 C 522.624 636.355,528.774 622.111,537.649 619.294 C 540.592 618.360,543.000 616.431,543.000 615.006 C 543.000 611.659,554.779 609.294,562.500 611.090 C 565.800 611.858,577.950 613.118,589.500 613.891 M974.047 627.000 C 978.197 627.000,985.847 628.961,991.047 631.359 C 996.246 633.756,1005.214 636.118,1010.975 636.609 C 1022.472 637.587,1027.210 646.452,1019.361 652.302 C 1017.001 654.061,1013.486 662.925,1011.551 672.000 C 1009.616 681.075,1003.864 702.000,998.769 718.500 C 993.674 735.000,988.840 751.875,988.027 756.000 C 987.213 760.125,985.316 766.200,983.811 769.500 C 982.305 772.800,980.678 787.830,980.195 802.900 C 979.315 830.321,975.907 840.000,967.133 840.000 C 964.860 840.000,963.000 842.025,963.000 844.500 C 963.000 846.975,965.067 849.000,967.594 849.000 C 975.175 849.000,975.962 857.222,969.280 866.607 C 965.826 871.457,963.000 876.748,963.000 878.363 C 963.000 882.960,951.149 884.908,942.709 881.699 C 938.502 880.100,925.887 879.107,914.675 879.492 C 895.265 880.159,893.852 879.735,885.145 870.624 C 880.115 865.361,876.000 859.183,876.000 856.895 C 876.000 849.844,885.229 844.608,897.105 844.919 C 907.580 845.194,908.538 844.510,909.801 835.858 C 910.552 830.711,914.825 817.050,919.296 805.500 C 928.423 781.927,936.560 760.325,943.026 742.500 C 945.420 735.900,948.231 719.204,949.272 705.399 C 951.266 678.950,953.899 670.832,961.417 667.947 C 968.194 665.346,967.042 657.000,959.906 657.000 C 956.554 657.000,953.025 654.951,952.064 652.446 C 950.056 647.213,956.421 630.000,960.364 630.000 C 961.814 630.000,963.107 627.638,963.237 624.750 C 963.378 621.614,964.083 621.010,964.987 623.250 C 965.819 625.313,969.896 627.000,974.047 627.000 M796.978 640.454 C 807.621 641.610,812.829 641.013,813.652 638.545 C 814.328 636.517,817.587 638.803,821.145 643.800 C 826.394 651.171,827.045 654.815,825.057 665.687 C 822.505 679.644,818.491 683.881,807.750 683.954 C 799.940 684.007,798.863 690.491,805.719 696.182 C 813.643 702.758,822.000 722.134,822.000 733.927 C 822.000 740.069,820.472 757.006,818.605 771.566 C 815.473 795.986,815.706 799.399,821.605 815.577 C 829.060 836.022,829.594 843.943,823.840 848.718 C 820.605 851.403,816.103 850.223,803.590 843.413 C 783.317 832.378,758.910 828.519,752.150 835.278 C 749.553 837.875,745.387 840.000,742.891 840.000 C 740.396 840.000,737.520 841.350,736.500 843.000 C 733.412 847.996,723.519 846.362,721.675 840.552 C 720.724 837.555,721.369 827.768,723.108 818.802 C 724.947 809.327,725.478 789.307,724.378 771.000 C 722.699 743.066,723.190 737.928,728.721 725.616 C 734.413 712.942,757.253 687.000,762.719 687.000 C 763.974 687.000,765.000 684.818,765.000 682.150 C 765.000 677.429,761.554 677.432,750.000 682.161 C 747.027 683.378,743.094 680.463,738.408 673.567 C 730.122 661.374,731.323 651.099,741.840 644.208 C 753.991 636.247,756.583 636.070,796.978 640.454 M733.980 688.668 C 735.020 691.379,733.107 695.817,729.417 699.255 C 714.984 712.702,713.016 721.470,712.750 773.511 C 712.504 821.828,712.395 822.607,705.115 828.506 C 699.090 833.388,695.221 834.117,684.115 832.465 C 668.366 830.121,663.000 826.575,663.000 818.513 C 663.000 815.349,660.364 807.595,657.143 801.281 L 651.287 789.801 672.244 770.992 C 689.672 755.350,695.583 747.411,707.350 723.836 C 727.570 683.327,727.191 684.000,729.806 684.000 C 731.116 684.000,732.994 686.101,733.980 688.668 M609.639 837.206 C 633.048 846.364,640.422 856.821,652.270 897.657 C 655.877 910.089,657.074 924.546,656.616 950.157 C 654.795 1051.942,657.147 1161.751,661.685 1186.858 C 662.843 1193.261,665.146 1201.118,666.805 1204.318 C 668.463 1207.519,670.898 1218.994,672.216 1229.818 C 673.534 1240.643,676.123 1258.208,677.969 1268.851 C 679.814 1279.493,680.463 1293.298,679.411 1299.528 L 677.497 1310.855 660.499 1309.114 C 647.349 1307.768,639.764 1308.803,627.000 1313.685 C 602.506 1323.055,599.731 1322.341,590.297 1304.240 C 579.453 1283.432,577.367 1269.821,583.284 1258.474 C 585.857 1253.539,587.971 1247.049,587.982 1244.053 C 587.992 1241.057,589.296 1236.185,590.879 1233.226 C 593.663 1228.025,595.055 1149.500,592.852 1122.000 C 591.690 1107.505,588.653 1091.114,579.233 1048.500 C 569.414 1004.079,566.413 995.156,556.344 980.440 C 551.053 972.707,543.360 955.832,539.248 942.940 C 532.948 923.190,532.129 916.566,534.045 900.859 C 535.304 890.547,539.136 877.813,542.622 872.359 C 546.089 866.937,550.355 859.125,552.104 855.000 C 556.537 844.540,575.306 831.000,585.372 831.000 C 589.995 831.000,600.915 833.792,609.639 837.206 M430.716 841.898 C 450.667 848.507,470.557 867.000,457.714 867.000 C 449.617 867.000,443.561 876.171,445.582 885.371 C 447.647 894.777,445.357 895.695,423.609 894.185 C 413.235 893.465,405.000 898.067,405.000 904.584 C 405.000 907.527,410.823 908.076,429.750 906.918 C 451.762 905.570,455.229 904.539,461.095 897.597 L 467.689 889.791 470.953 898.377 C 472.779 903.180,474.626 933.517,475.145 967.231 C 476.203 1035.960,480.741 1061.082,503.913 1126.500 C 514.339 1155.936,516.862 1164.439,519.046 1177.500 C 522.452 1197.877,530.696 1221.225,537.054 1228.500 C 539.938 1231.800,544.473 1238.806,547.132 1244.068 C 549.791 1249.330,554.336 1255.422,557.233 1257.604 C 564.812 1263.315,568.942 1271.852,571.510 1287.115 C 573.481 1298.833,576.930 1304.975,591.348 1322.447 C 595.798 1327.841,591.901 1331.002,585.614 1327.098 C 582.801 1325.351,571.685 1322.176,560.911 1320.042 C 537.488 1315.403,530.943 1317.844,509.112 1339.367 C 498.035 1350.287,494.040 1352.564,489.821 1350.362 C 486.894 1348.835,478.763 1345.887,471.750 1343.812 C 464.738 1341.737,459.000 1339.052,459.000 1337.845 C 459.000 1336.638,455.803 1334.848,451.895 1333.867 C 444.084 1331.907,443.754 1325.819,449.764 1294.500 C 454.570 1269.453,453.365 1241.942,445.547 1198.199 C 432.026 1122.556,422.465 1080.663,416.859 1072.500 C 413.426 1067.502,402.729 1031.882,397.565 1008.254 C 394.891 996.019,390.070 982.311,386.851 977.791 C 383.633 973.272,381.000 968.289,381.000 966.718 C 381.000 965.148,376.478 957.931,370.952 950.681 C 365.425 943.432,358.669 933.168,355.938 927.873 C 353.207 922.578,347.700 914.973,343.700 910.972 C 336.972 904.244,336.692 902.809,339.963 891.820 C 345.596 872.902,359.584 853.316,371.604 847.518 C 377.597 844.627,389.250 841.246,397.500 840.005 C 405.750 838.764,413.272 837.580,414.216 837.374 C 415.159 837.168,422.584 839.204,430.716 841.898 M694.908 850.320 C 705.339 852.863,711.000 862.015,711.000 876.338 C 711.000 881.319,712.305 887.833,713.900 890.814 C 716.863 896.350,713.422 914.397,708.757 917.789 C 707.462 918.730,702.713 923.991,698.202 929.480 C 690.705 938.602,690.000 941.633,690.000 964.730 C 690.000 992.173,688.187 994.537,675.342 983.839 C 668.522 978.159,668.277 976.715,670.150 953.189 C 671.738 933.241,670.952 924.331,666.058 906.788 C 662.726 894.846,660.000 882.001,660.000 878.244 C 660.000 874.486,657.349 866.465,654.109 860.419 C 650.869 854.374,649.521 848.994,651.115 848.464 C 656.298 846.740,685.257 847.967,694.908 850.320 M784.514 851.586 C 810.920 857.192,819.087 879.974,804.748 908.024 C 802.070 913.262,796.756 918.970,792.940 920.709 C 789.123 922.449,786.000 925.941,786.000 928.471 C 786.000 932.179,788.394 932.688,798.341 931.097 C 810.291 929.187,810.611 929.350,808.422 936.246 C 807.179 940.163,801.068 950.148,794.843 958.434 C 779.220 979.230,774.773 998.343,772.490 1054.500 C 770.327 1107.714,769.019 1124.034,766.369 1130.887 C 757.875 1152.850,760.041 1214.485,769.832 1229.428 C 777.037 1240.424,770.463 1261.579,757.819 1268.090 C 745.456 1274.455,739.301 1281.892,733.223 1297.809 C 730.452 1305.064,726.953 1311.000,725.448 1311.000 C 723.942 1311.000,717.713 1313.396,711.605 1316.325 C 701.094 1321.365,690.144 1321.972,689.879 1317.530 C 684.968 1235.370,684.792 1238.145,697.003 1205.165 C 706.474 1179.584,708.296 1170.179,711.246 1131.665 C 715.537 1075.648,715.339 1066.537,709.179 1036.824 C 703.390 1008.901,702.656 954.903,707.893 942.259 C 709.808 937.635,715.341 930.919,720.188 927.336 C 728.570 921.139,729.000 919.726,729.000 898.410 C 729.000 881.905,730.038 876.000,732.940 876.000 C 735.107 876.000,738.729 871.288,740.989 865.528 C 743.249 859.768,747.551 854.277,750.549 853.326 C 753.547 852.374,756.000 850.168,756.000 848.423 C 756.000 846.390,759.502 846.044,765.750 847.461 C 771.113 848.677,779.556 850.534,784.514 851.586 M896.020 889.524 C 903.294 892.563,909.908 893.280,916.174 891.707 C 921.303 890.420,929.386 889.841,934.135 890.420 C 942.749 891.470,942.766 891.514,940.835 907.939 C 939.325 920.791,940.063 926.429,944.200 933.630 C 948.184 940.565,948.569 943.183,945.750 944.177 C 943.688 944.905,942.000 947.300,942.000 949.500 C 942.000 951.700,943.688 954.063,945.750 954.751 C 948.730 955.745,948.686 958.721,945.533 969.251 C 943.352 976.538,940.843 986.168,939.957 990.651 C 939.058 995.207,935.725 999.635,932.400 1000.691 C 928.184 1002.029,926.920 1004.371,928.061 1008.732 C 928.946 1012.117,927.216 1019.749,924.217 1025.693 C 910.798 1052.287,887.673 1137.776,888.374 1158.195 C 889.009 1176.659,882.471 1204.531,875.005 1215.189 C 872.252 1219.120,870.000 1224.060,870.000 1226.168 C 870.000 1231.517,878.813 1230.978,880.915 1225.500 C 881.865 1223.025,884.034 1221.000,885.735 1221.000 C 887.772 1221.000,888.116 1228.937,886.744 1244.250 C 883.940 1275.530,879.314 1292.753,872.585 1296.955 C 869.513 1298.874,867.000 1301.978,867.000 1303.854 C 867.000 1305.730,865.009 1308.918,862.575 1310.938 C 858.921 1313.970,857.504 1313.194,854.450 1306.491 C 850.498 1297.817,824.036 1284.000,811.375 1284.000 C 802.929 1284.000,777.000 1273.177,777.000 1269.651 C 777.000 1263.151,786.514 1236.000,788.791 1236.000 C 790.198 1236.000,792.119 1232.936,793.059 1229.190 C 794.860 1222.013,805.550 1209.000,809.644 1209.000 C 810.970 1209.000,814.600 1213.725,817.710 1219.500 C 823.696 1230.616,831.072 1233.553,830.894 1224.750 C 830.835 1221.863,828.858 1216.125,826.500 1212.000 C 820.239 1201.048,821.044 1192.394,829.583 1178.869 C 833.753 1172.262,840.613 1155.751,844.826 1142.178 C 849.040 1128.605,853.998 1114.383,855.845 1110.574 C 859.684 1102.655,860.807 1001.770,857.275 982.131 C 855.399 971.696,856.219 968.040,862.525 958.748 C 871.348 945.747,871.722 942.420,864.916 937.444 C 860.411 934.150,860.268 932.235,863.662 920.613 C 867.036 909.062,880.780 885.000,884.004 885.000 C 884.658 885.000,890.065 887.036,896.020 889.524 M759.000 892.160 C 759.000 894.447,762.713 897.021,767.250 897.879 C 771.788 898.737,778.538 900.398,782.250 901.569 C 790.512 904.177,791.491 898.052,783.750 892.176 C 776.615 886.760,759.000 886.748,759.000 892.160 M581.250 906.240 C 578.363 907.922,576.000 911.425,576.000 914.024 C 576.000 917.717,578.049 918.340,585.375 916.875 C 590.531 915.844,597.956 915.000,601.875 915.000 C 605.965 915.000,609.000 913.220,609.000 910.821 C 609.000 903.223,591.415 900.320,581.250 906.240 M542.020 979.500 C 556.495 1007.771,567.081 1041.623,571.363 1073.326 C 573.591 1089.822,568.096 1092.429,553.907 1081.607 C 540.751 1071.572,540.254 1070.117,538.391 1036.165 C 537.541 1020.666,535.530 1004.525,533.923 1000.297 C 532.315 996.069,531.000 989.363,531.000 985.396 C 531.000 977.948,523.601 962.981,512.492 947.954 C 506.571 939.945,506.404 938.343,510.117 925.083 L 514.109 910.824 520.385 930.162 C 523.837 940.798,533.573 963.000,542.020 979.500 M333.063 937.533 C 344.992 943.701,357.000 962.142,357.000 974.293 C 357.000 1000.814,339.755 1015.430,304.754 1018.575 C 284.047 1020.435,281.908 1019.284,268.890 999.275 C 261.134 987.353,260.476 984.395,262.213 969.275 C 264.384 950.382,269.158 945.000,283.746 945.000 C 289.025 945.000,299.230 942.330,306.422 939.066 C 322.262 931.879,322.143 931.885,333.063 937.533 M379.555 998.250 C 380.560 1004.438,382.646 1012.601,384.191 1016.391 C 385.736 1020.181,387.000 1026.011,387.000 1029.345 C 387.000 1035.397,386.984 1035.397,378.287 1029.204 C 373.495 1025.792,368.432 1022.979,367.037 1022.954 C 365.642 1022.929,362.722 1021.781,360.549 1020.403 C 357.391 1018.401,357.843 1015.682,362.799 1006.858 C 366.210 1000.786,369.000 993.834,369.000 991.409 C 369.000 981.658,377.785 987.353,379.555 998.250 M676.500 999.000 C 677.520 1000.650,681.729 1002.000,685.854 1002.000 C 689.979 1002.000,692.577 1003.258,691.626 1004.796 C 690.676 1006.334,691.839 1018.821,694.210 1032.546 C 697.197 1049.829,698.128 1071.795,697.240 1104.000 C 695.573 1164.483,694.210 1173.857,681.967 1209.000 C 677.937 1220.568,674.160 1194.136,672.049 1139.585 C 670.795 1107.182,668.776 1079.065,667.563 1077.102 C 664.635 1072.364,668.961 996.000,672.158 996.000 C 673.526 996.000,675.480 997.350,676.500 999.000 M349.303 1031.607 C 356.011 1034.691,365.812 1038.874,371.082 1040.902 C 381.860 1045.049,393.375 1064.417,390.836 1074.126 C 389.172 1080.490,384.000 1082.243,384.000 1076.443 C 384.000 1071.497,371.805 1059.000,366.977 1059.000 C 361.713 1059.000,361.923 1064.837,367.405 1070.895 C 373.874 1078.044,373.649 1090.333,366.510 1119.690 C 360.832 1143.038,360.460 1149.246,363.079 1176.887 C 365.616 1203.662,367.551 1210.857,377.258 1229.605 C 397.408 1268.520,399.459 1272.000,402.247 1272.000 C 407.516 1272.000,404.960 1283.811,399.000 1287.000 C 391.663 1290.927,390.444 1308.000,397.500 1308.000 C 399.975 1308.000,402.000 1306.022,402.000 1303.606 C 402.000 1301.189,404.791 1297.718,408.201 1295.892 C 418.355 1290.458,428.191 1299.056,430.660 1315.523 C 432.443 1327.414,431.632 1330.708,424.327 1341.250 C 410.330 1361.448,404.001 1364.374,375.779 1363.696 C 349.331 1363.060,347.000 1361.942,326.250 1339.936 C 316.104 1329.176,316.009 1324.873,325.471 1304.548 C 335.105 1283.852,335.016 1280.559,324.852 1281.636 C 317.226 1282.445,316.548 1281.537,314.277 1267.500 C 312.943 1259.250,311.353 1245.075,310.743 1236.000 C 310.134 1226.925,308.057 1212.750,306.128 1204.500 C 304.198 1196.250,301.219 1182.075,299.507 1173.000 C 297.795 1163.925,293.830 1147.515,290.697 1136.534 C 284.053 1113.249,283.575 1103.200,288.722 1094.959 C 291.684 1090.216,291.684 1087.784,288.722 1083.041 C 286.675 1079.763,285.000 1075.038,285.000 1072.541 C 285.000 1066.657,274.170 1066.623,271.915 1072.500 C 268.628 1081.067,264.000 1076.951,264.000 1065.459 C 264.000 1050.091,272.509 1040.010,283.214 1042.696 C 289.108 1044.176,291.000 1043.511,291.000 1039.961 C 291.000 1036.865,294.823 1034.655,302.250 1033.456 C 308.438 1032.457,318.225 1030.511,324.000 1029.130 C 329.775 1027.750,335.086 1026.481,335.803 1026.310 C 336.519 1026.140,342.594 1028.523,349.303 1031.607 M425.771 1159.500 C 437.007 1208.285,441.908 1249.914,439.294 1274.358 L 437.278 1293.217 429.389 1288.123 C 417.379 1280.369,408.270 1269.635,406.050 1260.623 C 404.949 1256.155,401.042 1248.450,397.367 1243.500 C 381.613 1222.280,376.936 1208.490,375.564 1179.219 C 373.750 1140.538,383.215 1092.000,392.570 1092.000 C 393.899 1092.000,396.877 1088.467,399.188 1084.148 C 403.338 1076.394,403.474 1076.572,410.090 1098.398 C 413.774 1110.554,420.831 1138.050,425.771 1159.500 M799.540 1291.450 C 834.066 1301.120,842.605 1305.335,848.742 1315.737 L 854.629 1325.714 848.064 1327.705 C 844.454 1328.800,837.203 1332.915,831.950 1336.848 C 826.698 1340.782,820.285 1344.000,817.700 1344.000 C 815.115 1344.000,813.000 1345.921,813.000 1348.270 C 813.000 1350.618,809.625 1356.551,805.500 1361.453 C 799.313 1368.805,798.000 1373.536,798.000 1388.469 C 798.000 1407.328,792.841 1417.286,784.690 1414.158 C 779.864 1412.306,768.000 1386.156,768.000 1377.371 C 768.000 1374.062,766.762 1370.589,765.248 1369.654 C 759.607 1366.167,741.000 1324.094,741.000 1314.825 C 741.000 1301.711,749.836 1284.000,756.379 1284.000 C 759.276 1284.000,762.477 1282.655,763.493 1281.011 C 764.667 1279.112,768.301 1279.553,773.460 1282.221 C 777.925 1284.530,789.661 1288.683,799.540 1291.450 M673.356 1320.486 L 690.712 1323.971 688.960 1339.236 C 687.052 1355.852,690.803 1377.768,695.841 1379.447 C 697.579 1380.026,699.000 1383.008,699.000 1386.073 C 699.000 1389.138,700.350 1392.480,702.000 1393.500 C 711.699 1399.495,700.125 1430.974,684.923 1439.943 C 673.311 1446.794,671.760 1457.726,680.250 1472.893 C 685.332 1481.972,685.308 1482.387,679.500 1485.886 C 662.090 1496.373,655.558 1496.792,623.809 1489.456 C 606.962 1485.563,592.118 1481.281,590.823 1479.939 C 586.630 1475.598,584.023 1455.000,587.666 1455.000 C 589.500 1455.000,591.000 1452.928,591.000 1450.394 C 591.000 1444.544,599.032 1431.929,609.704 1421.019 C 614.267 1416.355,618.000 1409.200,618.000 1405.120 C 618.000 1397.560,610.238 1379.849,605.604 1376.837 C 604.197 1375.923,602.182 1368.871,601.126 1361.166 C 598.527 1342.201,604.011 1334.399,624.498 1327.917 C 633.299 1325.133,642.525 1321.558,645.000 1319.973 C 650.778 1316.274,652.541 1316.305,673.356 1320.486 M731.521 1333.516 C 732.082 1338.446,733.463 1343.160,734.590 1343.990 C 741.320 1348.950,759.000 1382.243,759.000 1389.957 C 759.000 1398.264,769.468 1419.404,775.158 1422.588 C 778.678 1424.558,778.699 1426.663,775.292 1436.209 C 773.076 1442.419,771.204 1450.372,771.132 1453.883 C 771.007 1459.939,763.275 1469.275,760.599 1466.599 C 756.943 1462.943,744.000 1442.377,744.000 1440.223 C 744.000 1436.232,725.268 1419.000,720.930 1419.000 C 718.769 1419.000,717.000 1416.470,717.000 1413.377 C 717.000 1406.490,708.684 1382.357,705.541 1380.122 C 704.286 1379.230,701.726 1373.352,699.852 1367.061 C 695.391 1352.082,700.438 1336.938,712.576 1328.878 C 724.351 1321.060,730.267 1322.508,731.521 1333.516 M572.270 1333.831 L 587.229 1338.662 588.968 1355.515 C 590.007 1365.583,592.578 1373.734,595.354 1375.764 C 597.909 1377.633,600.000 1380.767,600.000 1382.730 C 600.000 1384.692,602.104 1390.367,604.676 1395.340 C 609.243 1404.173,609.115 1404.645,599.151 1415.674 C 593.541 1421.884,586.421 1431.248,583.328 1436.483 C 576.700 1447.703,576.041 1447.841,566.906 1439.918 C 563.049 1436.573,556.430 1433.086,552.197 1432.168 C 547.964 1431.250,543.001 1430.051,541.169 1429.504 C 539.337 1428.957,537.152 1422.423,536.313 1414.983 C 535.475 1407.544,529.742 1391.106,523.575 1378.455 L 512.361 1355.452 524.105 1344.168 C 541.641 1327.318,547.926 1325.969,572.270 1333.831 M904.412 1337.250 C 914.119 1347.713,916.433 1355.029,912.590 1363.107 C 910.917 1366.623,906.050 1376.853,901.774 1385.839 C 897.498 1394.826,894.000 1405.032,894.000 1408.520 C 894.000 1417.094,876.974 1434.000,868.339 1434.000 C 864.518 1434.000,857.679 1435.411,853.144 1437.135 C 847.712 1439.200,842.268 1439.284,837.198 1437.379 C 832.964 1435.789,826.125 1433.762,822.000 1432.874 C 805.048 1429.227,803.529 1425.818,807.176 1399.602 C 809.106 1385.727,812.859 1372.411,816.138 1367.806 C 824.996 1355.367,852.677 1337.904,870.373 1333.593 C 893.734 1327.901,895.959 1328.140,904.412 1337.250 M456.978 1352.734 C 463.164 1355.888,474.926 1359.390,483.117 1360.516 C 494.334 1362.059,499.480 1364.530,503.971 1370.532 C 507.251 1374.914,511.299 1380.131,512.967 1382.123 C 514.635 1384.116,516.000 1387.749,516.000 1390.196 C 516.000 1392.644,517.350 1395.480,519.000 1396.500 C 520.650 1397.520,522.000 1403.088,522.000 1408.874 C 522.000 1414.660,523.333 1421.885,524.962 1424.928 C 527.063 1428.856,526.633 1432.935,523.480 1438.981 C 521.036 1443.666,519.025 1448.850,519.011 1450.500 C 518.974 1454.874,503.819 1471.383,494.293 1477.427 C 486.477 1482.385,485.351 1482.369,470.653 1477.084 C 460.246 1473.342,451.449 1467.251,443.644 1458.383 C 432.838 1446.108,430.788 1445.100,412.846 1443.243 C 392.643 1441.152,385.020 1437.073,380.859 1426.129 C 377.622 1417.616,382.882 1398.143,390.312 1391.133 C 393.440 1388.181,396.000 1384.469,396.000 1382.883 C 396.000 1381.297,398.025 1380.000,400.500 1380.000 C 402.975 1380.000,405.000 1378.650,405.000 1377.000 C 405.000 1375.350,406.744 1374.000,408.875 1374.000 C 411.007 1374.000,418.713 1367.925,426.000 1360.500 C 433.287 1353.075,440.708 1347.000,442.490 1347.000 C 444.273 1347.000,450.792 1349.580,456.978 1352.734 M723.000 1434.000 C 726.300 1437.300,729.000 1441.712,729.000 1443.804 C 729.000 1445.896,732.334 1452.514,736.410 1458.511 C 742.829 1467.958,743.230 1469.905,739.408 1473.076 C 736.982 1475.090,728.949 1477.419,721.557 1478.252 C 705.335 1480.081,695.143 1474.465,690.498 1461.138 C 687.459 1452.421,687.800 1451.746,697.242 1447.801 C 703.680 1445.111,707.880 1440.887,709.151 1435.823 C 711.506 1426.440,714.982 1425.982,723.000 1434.000 M806.055 1440.271 C 810.700 1442.071,823.950 1445.149,835.500 1447.111 L 856.500 1450.680 858.541 1467.090 C 860.417 1482.174,859.932 1484.187,852.541 1492.008 C 840.158 1505.110,835.299 1506.823,822.651 1502.544 C 816.518 1500.469,808.713 1496.348,805.307 1493.386 C 801.900 1490.424,797.850 1487.995,796.307 1487.989 C 794.763 1487.983,788.957 1485.208,783.404 1481.822 C 774.804 1476.580,773.972 1475.136,777.790 1472.084 C 780.255 1470.113,783.045 1463.317,783.991 1456.982 C 785.696 1445.559,790.485 1437.000,795.172 1437.000 C 796.513 1437.000,801.410 1438.472,806.055 1440.271 M555.664 1443.165 C 567.741 1448.668,576.000 1464.140,576.000 1481.263 L 576.000 1496.654 591.750 1496.555 C 600.413 1496.500,616.861 1498.265,628.301 1500.478 C 646.814 1504.057,649.336 1505.378,651.221 1512.484 C 652.386 1516.875,659.673 1526.536,667.415 1533.954 C 684.539 1550.362,684.849 1558.636,668.666 1567.301 C 658.122 1572.946,657.120 1572.961,631.177 1567.864 C 616.516 1564.983,598.845 1560.116,591.909 1557.048 C 584.972 1553.979,572.135 1550.574,563.382 1549.480 C 554.628 1548.387,544.774 1545.503,541.483 1543.073 C 535.878 1538.932,535.831 1538.466,540.750 1535.678 C 548.859 1531.081,547.624 1522.755,539.250 1525.566 C 527.460 1529.524,503.026 1526.934,489.792 1520.325 C 478.081 1514.476,477.000 1512.967,477.000 1502.468 C 477.000 1491.696,477.553 1491.000,486.106 1491.000 C 495.852 1491.000,509.032 1483.942,515.420 1475.302 C 517.576 1472.386,520.972 1470.000,522.966 1470.000 C 524.960 1470.000,528.989 1463.250,531.919 1455.000 C 537.571 1439.087,541.938 1436.911,555.664 1443.165 M792.268 1501.787 C 802.846 1506.894,815.213 1512.603,819.750 1514.472 C 824.288 1516.342,828.000 1519.295,828.000 1521.036 C 828.000 1526.297,807.904 1544.680,800.460 1546.228 C 794.132 1547.544,776.909 1550.647,741.608 1556.833 C 722.563 1560.170,699.000 1557.313,699.000 1551.666 C 699.000 1549.153,691.575 1539.904,682.500 1531.115 C 673.425 1522.325,666.019 1513.416,666.043 1511.317 C 666.067 1509.218,672.569 1503.927,680.491 1499.559 C 693.652 1492.304,696.276 1491.869,710.885 1494.525 C 730.850 1498.153,739.022 1496.168,748.662 1485.348 L 756.253 1476.829 764.645 1484.665 C 769.260 1488.974,781.690 1496.679,792.268 1501.787 " />
  </g>
</svg>